<?xml version="1.0" encoding="UTF-8"?><svg id="Layer_1" xmlns="http://www.w3.org/2000/svg" viewBox="0 0 237.37 88.9"><defs><style>.cls-1{fill:#696cff;}</style></defs><path class="cls-1" d="M2.95,6.15l-1.16-.05,.18-.97,1.16,.14c.03-.37,.08-.37,.14,0l.09,.05v-.6c0-.06,.05-.15,.14-.28,.09-.15,.15-.25,.19-.28,.28-.12,.55-.35,.83-.69,.18-.25,.34-.42,.46-.51,.09-.12,.23-.22,.42-.28,.28-.12,.57-.22,.88-.28,.31,0,.62,.03,.92,.09,.34,.06,.66,.15,.97,.28,.49,.37,.96,.35,1.39-.05,.37-.09,.8-.19,1.29-.28,.49-.22,.94-.39,1.34-.51l.09-.18c.56-.06,1.09-.11,1.6-.14,.51-.03,1.09-.08,1.73-.14h.74c.56,.28,.92,.46,1.11,.53,.19,.08,.42,.18,.69,.3,.31,.19,.65,.41,1.04,.67,.39,.26,.72,.58,.99,.95l.09,.09v.05c.03,.06,.06,.12,.09,.19-.19-.19-.16-.08,.07,.32,.23,.4,.36,.69,.39,.88,0-.06,.05,0,.16,.16,.11,.17,.21,.33,.3,.49,.09,.15,.15,.23,.19,.23s0-.19-.09-.55c.43,1.08,.72,2.02,.88,2.82,.22,.8,.25,1.73,.09,2.77,.09,.31,.15,.62,.19,.92-.03,.46-.12,.84-.28,1.13-.15,.29-.28,.56-.37,.81l-.05-.6c-.12,.59-.26,1-.42,1.25-.09,.18-.16,.33-.21,.44-.05,.11-.15,.3-.3,.58l.05-.05c-.15,.25-.29,.51-.42,.79,.28-.37,.4-.45,.37-.23-.03,.22-.08,.46-.14,.74-.03,.03-.03,.08,0,.14,.25,.06,.43,.12,.55,.18l.09,.09c.09,.06,.18,.12,.28,.19,.22,.12,.38,.28,.51,.46,.56,.74,.92,1.59,1.11,2.54,.25,.99,.25,1.85,.02,2.59-.23,.74-.29,1.25-.16,1.53-.19,.37-.34,.71-.46,1.02-.19,.31-.34,.6-.46,.88l-.09,.14s0-.02-.09-.05l-.09,.32c-.09,.12-.22,.32-.37,.58-.15,.26-.31,.49-.46,.67-.34,.43-.72,.83-1.16,1.2-.8,.77-1.83,1.37-3.1,1.8-.83,.25-1.59,.4-2.27,.46h.14c-.96,.19-1.85,.37-2.68,.55-.43,.03-.88,.03-1.34,0-.37,0-.77-.02-1.2-.05-.22,.03-.37,.05-.46,.05-.06,0-.08,0-.05,0h-.05c-.37,.25-.71,.42-1.02,.51l-.05,.05,.19-.05c-.09,.03-.17,.06-.23,.09-.31,.22-.67,.36-1.09,.44-.42,.08-.76,.1-1.04,.07-.43-.19-.77-.4-1.02-.65-.37-.28-.6-.54-.69-.79-.22-.49-.26-.86-.14-1.11,0,.03,.02,.08,.05,.14,.06,0,.18,.08,.35,.23,.17,.15,.41,.32,.72,.51,.28,.19,.59,.31,.95,.37,.35,.06,.65,.03,.9-.09-.06,.09,.06,.08,.37-.05,.06-.03,.14-.06,.23-.09,.09-.03,.17-.05,.23-.05h-.09c.31-.09,.52-.19,.62-.3,.11-.11,.19-.21,.25-.3,.09-.15,.45-.23,1.06-.23,.15,.03,.32,.03,.51,0,.19-.03,.08-.08-.32-.14l.65-.05c-.19,.03-.39,.03-.6,0l-.23-.05c-.37,.03-.72,.06-1.06,.09-.03,.03-.08,.06-.14,.09-.06,.03-.12,.08-.19,.14h.05s-.08,.02-.14,.05c-.19,.12-.37,.22-.55,.28-.12,.03-.26,.08-.42,.14-.03,0-.08,.02-.14,.05-.06,.03-.12,.06-.18,.09h.05c-.4,.19-.91,.14-1.53-.14-.37-.12-.74-.43-1.11-.92-.12-.15-.23-.34-.32-.55-.09-.12-.22-.25-.37-.37-.34-.37-.65-.85-.92-1.43-.15-.28-.3-.58-.44-.9s-.19-.7-.16-1.13c0-.37,.12-.72,.37-1.06,.25-.34,.46-.58,.65-.74,.09-.55,.12-1.25,.09-2.08-.03-.83-.06-1.65-.09-2.45-.12-.34-.2-.74-.23-1.2,0-.31,.05-.55,.14-.74l-.05,.05v-.14c.15-.28,.28-.48,.37-.6,.03-.15,.02-.32-.02-.49-.05-.17-.07-.35-.07-.53,.03-.31,.05-.65,.05-1.02l.09-.09c-.03-.34-.05-.82-.05-1.43v-1.8l-1.25,.05c0-.31,0-.53-.02-.67-.02-.14-.02-.52-.02-1.13l1.39-.05c.03,.06,.05,.14,.05,.23v-.23h0c0,.06,.02,.14,.05,.23l.05-.05c0-.06-.02-.12-.05-.19h0c.03-1.32,.02-2.65-.05-3.98l-.18-.05v-.05l.14,.05h.05v-.79l-.09-.05c0,.25,.02,.49,.05,.74h-.14c-.03-.21-.06-.46-.09-.74-.06,.22-.11,.45-.14,.69v.05Zm.46,.09h.05l-.05-.09v.09Zm7.12,3.51c-.03,.06-.05,.12-.05,.18,0,.25,0,.52-.02,.83-.02,.31-.12,.59-.3,.83-.31,.46-.46,.97-.46,1.53,.09,.43,.08,.76-.05,.97h-.14v.67c0,.26-.08,.49-.23,.67v.09h.14c.46-.09,.9-.14,1.32-.14s.84-.09,1.27-.28c.19,.09,.17,.16-.05,.21-.22,.05-.32,.09-.32,.12,.37,0,.74-.03,1.11-.09h.14c.43-.28,.83-.49,1.2-.65,.09,.03,.2,0,.32-.07,.12-.08,.22-.16,.28-.25l-.09-.14c.09-.06,.22-.12,.37-.16,.15-.05,.25-.16,.28-.35v-.23c.22,0,.32-.13,.32-.39s.06-.5,.19-.72c0,.09,.03,.09,.09-.02,.06-.11,.14-.18,.23-.21-.12,0-.18-.08-.16-.23,.02-.15-.04-.15-.16,0,.15-.28,.18-.51,.07-.69-.11-.19-.07-.42,.12-.69l-.23-.23c-.03-.22,.02-.39,.14-.51l.23,.14c-.09-.22-.09-.35,0-.39,.09-.05,.12-.21,.09-.49-.06,.19-.15,.25-.25,.19-.11-.06-.21-.19-.3-.37-.22-.25-.35-.52-.42-.83-.15-.34-.34-.39-.55-.14,0-.06-.02-.09-.05-.09-.06-.03-.12-.05-.19-.05-.12,0-.25,.02-.37,.05-.22,.09-.43,.19-.65,.28-.12,0-.22,.08-.3,.23-.08,.15-.15,.31-.21,.46-.06,.31-.25,.57-.55,.79,0,.19-.03,.37-.09,.55-.46,0-.91-.06-1.34-.19h.05c-.12-.06-.12-.17,0-.32,.12-.15,.22-.28,.28-.37,.06,.06,.12,.03,.19-.09,.06-.15,.08-.25,.05-.3-.03-.05,.05-.15,.23-.3v-.16c0-.08-.05-.08-.14-.02l.05-.09c-.43,.46-.79,.96-1.06,1.48Zm5.09,12.3c.22,.03,.42,.05,.6,.05-.37-.25-.79-.39-1.25-.42-.22,.06-.38,.08-.49,.07-.11-.02-.21-.05-.3-.12v-.09h-.56c-.25,0-.4-.06-.46-.18-.12,0-.26-.02-.42-.05-.31,.06-.63,.09-.97,.07-.34-.02-.65,.04-.92,.16-.12-.06-.13-.12-.02-.16,.11-.05,.21-.08,.3-.12h-.97c-.31,.15-.54,.29-.69,.42-.12,.06-.14,.22-.05,.46l.14,.14c-.03,.09-.08,.18-.14,.25-.06,.08-.05,.18,.05,.3l.14,.14c-.19,.09-.22,.23-.12,.42,.11,.19,.15,.34,.12,.46-.06,0-.11,.04-.14,.12-.03,.08-.06,.15-.09,.21,.09-.06,.15-.05,.19,.02,.03,.08,.09,.02,.19-.16-.09,.15-.09,.25,0,.28,.09,.03,.19,.03,.28,0,.19-.03,.31,0,.37,.09,.09-.06,.17-.14,.23-.23,.06-.03,.14,.03,.23,.19l-.14,.28c.18-.03,.28,0,.3,.07,.02,.08,.15,.12,.39,.12-.12-.06-.15-.14-.09-.23,.06-.09,.17-.17,.32-.23,.19-.22,.49-.25,.9-.12s.64,0,.67-.39c.28,.03,.53-.02,.76-.14,.23-.12,.49-.26,.76-.42,.31-.12,.51-.32,.6-.6,.06-.28,.22-.43,.46-.46-.06-.09-.12-.15-.19-.19Zm-3.7-14.15c.09-.03,.2-.12,.32-.28-.12,.09-.23,.18-.32,.28Zm.05,23.16c.25,.06,.65,.03,1.2-.09-.37,.06-.76,.09-1.16,.09h-.05Zm.65-23.81l-.37,.37c.06-.03,.14-.08,.23-.14,.09-.09,.19-.19,.28-.28-.03,0-.08,.02-.14,.05Zm3.61,23.21c-.55,.15-1.11,.26-1.66,.32-.31,.06-.6,.11-.88,.14,.28-.06,.55-.09,.83-.09h.09c.62-.09,1.16-.22,1.62-.37Zm-.88-6.2l.05-.05c.18-.09,.42-.23,.69-.42l.05-.05c-.09-.03-.16,0-.21,.12-.05,.11-.15,.16-.3,.16-.09,.06-.19,.14-.28,.23Zm1.9-1.71l-.05-.05c-.06-.03-.12-.05-.19-.05v-.05h-.05s-.02,.06-.05,.09c-.09,.09-.15,.19-.19,.28-.03-.03-.08-.02-.14,.05-.06,.03-.08,.06-.05,.09v.21s-.06,.09-.19,.12c0,.03,0,.08-.02,.14-.02,.06,.02,.08,.12,.05l-.05,.14c.12-.12,.25-.23,.37-.32l.05-.05,.05-.05s.06-.06,.09-.09c0-.03,.02-.06,.05-.09v.05c.09-.15,.17-.31,.23-.46Zm-.28-.19h0Z"/><path class="cls-1" d="M28.21,29.18c.2-.65,.44-1.02,.72-1.11-.03,.06-.06,.12-.09,.19,.03,.06,.06,.36,.09,.9,.03,.54,.23,1.02,.6,1.46,.12,.37,.29,.69,.51,.97-.12-.09-.1-.02,.07,.21,.17,.23,.36,.38,.58,.44,.37,.19,.64,.29,.81,.3,.17,.02,.35,.02,.53,.02,.15,0,.35,.02,.58,.07,.23,.05,.62-.02,1.18-.21,.12-.09,.25-.23,.39-.42,.14-.18,0-.14-.39,.14,.25-.15,.43-.32,.56-.51-.37,.43-.85,.68-1.43,.74-.28,.03-.6-.02-.97-.14v.05c-.12-.06-.26-.12-.42-.18-.15-.06-.31-.12-.46-.19l-.05-.05c-.19-.09-.35-.17-.51-.23-.03-.06-.06-.12-.09-.19-.03,0-.06-.02-.09-.05,.03,.03,.06,.05,.09,.05-.28-.28-.48-.6-.6-.97-.31-.4-.49-.85-.56-1.34-.06-.37-.05-.69,.05-.97v-.51c-.09-.43-.14-.94-.14-1.53l-.65-.09c0-.06,.02-.14,.05-.23,.15-.28,.21-.5,.16-.67-.05-.17,0-.39,.12-.67l-.14-.42,.05,.05c.03-.34,.03-.62,0-.86-.03-.23,.05-.52,.23-.86l-.05-.28c.15-.56,.37-1.09,.65-1.62-.12-.03-.15-.12-.07-.25,.08-.14,.12-.3,.12-.49,.09-.09,.15-.15,.19-.18,.03-.03,.09-.17,.18-.42-.03-.03-.05-.1-.05-.21s-.02-.13-.05-.07l.14-.19,.09,.28c.06-.09,.11-.25,.14-.46-.12-.06-.17-.2-.14-.42l.18-.46,.09,.09,.14-.37,.32-.05c0-.28,.12-.49,.37-.65,0-.25,0-.49-.02-.74-.02-.25,.08-.51,.3-.79-.03-.15-.05-.35-.05-.6,.49-.12,.96-.15,1.39-.09h-.05c.09,.06,.09,.18,0,.35-.09,.17-.14,.3-.14,.39-.06-.06-.12-.03-.19,.09,0,.19,.02,.32,.05,.42,.03-.09,.06-.17,.09-.23,.09-.25,.2-.48,.32-.69,.06-.21,.14-.42,.23-.6l.09,.05v-.05h-.05c-.06-.06-.08-.11-.05-.14l.05-.14v-.05l.09-.19c.03-.09,.06-.2,.09-.32,0-.06,.02-.12,.05-.19l-1.11-.42c.03-.19,.1-.46,.21-.83,.11-.37,.1-.42-.02-.14l.42-.92-.23,1.11c.09-.15,.2-.42,.32-.81,.12-.39,.28-.81,.46-1.27-.03-.09-.05-.22-.05-.39s.08-.49,.23-.95l1.39,.55,.14,.05,.14,.05c.19-.4,.35-.8,.51-1.2,.46-1.17,1.05-2.3,1.76-3.38l.05,.05,.05-.05-.05-.05-.05,.05h0l-.09-.05,.05-.09,.05,.09,.05-.05c.31-.46,.65-.92,1.02-1.39l.09,.09c.25-.25,.48-.46,.69-.65,.46-.52,1.09-.89,1.9-1.11,.65-.15,1.3-.12,1.97,.12,.66,.23,1.19,.55,1.6,.95,.25,.31,.56,.72,.95,1.25,.38,.52,.7,.97,.95,1.34l.19,.09c.28,.62,.5,1.22,.67,1.8,.17,.59,.36,1.2,.58,1.85l.32,.79c0,.68,.12,1.48,.37,2.4,.22,.92,.4,1.96,.55,3.1-.06-.12-.08-.14-.07-.05,.02,.09,.02,.23,.02,.42,.03,.49,0,.86-.09,1.11,.03-.03,.06,.06,.09,.28,.03,.22,.06,.42,.09,.6,.03,.19,.05,.28,.07,.28,.02,0,.05-.19,.12-.56-.03,.37-.02,.79,.05,1.25,.12,.34,.26,.6,.42,.79,.09,.06,.26,.14,.51,.23,.19,.15,.37,.32,.56,.51,.18,.31,.35,.6,.51,.88l.32-.23,.09,.18s.02,.06,.05,.09l-.32,.14c.06,.06,.12,.12,.19,.19l.19-.14c.06,.12,.08,.26,.05,.42,.15,.28,.21,.57,.18,.88-.09,.37-.2,.63-.32,.79-.15,.19-.31,.34-.46,.46v.18l-.09-.09c-.06,.06-.14,.12-.23,.19l-.14-.09v-.05l.14-.23-.19,.19h.05l-.05,.05-.09-.09-.05,.09-.23-.23c-.09,.22-.22,.39-.37,.51v.42c-.12,.09-.2,.28-.23,.56,.06-.22,.14-.35,.23-.42l.05,.74,.14-.32c.03,.06,.05,.12,.05,.18l.14,.28,.09,.19c.06,.15,.12,.29,.19,.42,.09,.25,.17,.51,.23,.79,.06,.28,.05,.63-.05,1.06v.28c-.15,.74-.48,1.33-.97,1.76-.43,.49-1.02,.89-1.76,1.2-.77,.22-1.46,.22-2.08,0-.62-.22-1.11-.48-1.48-.79-.03-.03-.06-.05-.09-.05-.71-.43-1.2-.8-1.48-1.11-.09-.19-.15-.35-.18-.51l.05-.05c-.22-.46-.39-.86-.51-1.2-.06-.18-.12-.4-.19-.65-.06-.22-.09-.43-.09-.65l-.32-.19c-.09,0-.27-.02-.53-.05-.26-.03-.47-.03-.62,0-.52,.09-1.09,.19-1.71,.28-.15,.03-.32,.06-.49,.09-.17,.03-.27,.05-.3,.05-.28,.12-.54,.23-.79,.32-.55,.19-.88,.32-.97,.42s-.14,.23-.14,.42c0,.22-.02,.4-.05,.55,.03-.06,.05-.06,.05,0v.51l.05,.69c.03,.09,.02,.23-.05,.42l-.05,.09c-.03,.62-.11,1.09-.23,1.43-.06,.19-.2,.46-.42,.83-.09,.15-.2,.29-.32,.42l-.19,.19c-.06,.06-.08,.08-.05,.05,.03-.03,.02-.03-.05,0l-.19,.23c-.12,.12-.28,.25-.46,.37-.31,.25-.68,.4-1.11,.46-.37,.09-.79,.11-1.25,.05-.43-.06-.8-.15-1.11-.28-.22-.03-.45-.09-.69-.19-.12-.06-.25-.12-.37-.16-.12-.05-.28-.12-.46-.21-.18-.09-.35-.22-.49-.37s-.27-.31-.39-.46c-.22-.28-.39-.55-.51-.83,0-.03,.02-.05,.05-.05-.31-.74-.36-1.43-.16-2.08Zm7.79-2.84c.28-.17,.54-.33,.79-.49h-.09c-.49,.25-.83,.51-1.02,.79l-.09,.14v.14l-.14,.97c.06,.49,.05,.96-.05,1.39-.03,.15-.08,.28-.14,.37,0,.12-.02,.31-.05,.55,.09-.09,.14-.28,.14-.55,.12-.28,.15-.63,.09-1.06-.06-.43,0-.91,.19-1.43-.03-.37,.09-.64,.37-.81Zm7.31-8.35c-.09-.22-.19-.42-.28-.6-.12-.25-.19-.49-.19-.74,.06-.25,.05-.49-.05-.74h-.14c0-.12,.02-.26,.05-.42,.03-.15,0-.31-.09-.46l-.19-.19c.15-.19,.16-.37,.02-.55-.14-.19-.21-.37-.21-.56,.03,.03,.05,0,.05-.12s.03-.21,.09-.3c-.09,.09-.16,.09-.21,0-.05-.09-.08-.03-.12,.19,0-.31-.05-.45-.16-.42-.11,.03-.12-.14-.02-.51l-.05,.05c-.06,.09-.12,.17-.19,.23-.03,0-.03-.06,0-.19,.03-.12,.05-.25,.05-.37l.14-.42c-.09,0-.12-.12-.07-.37,.05-.25,.04-.48-.02-.69,0,.28-.04,.53-.12,.76-.08,.23-.13,.35-.16,.35-.19,.37-.31,.52-.37,.46-.06,.03-.12,.11-.16,.23-.05,.12-.04,.37,.02,.74-.03-.03-.06-.02-.09,.05-.06,.09-.11,.21-.14,.35-.03,.14-.06,.25-.09,.35-.06,.06-.08,.14-.05,.23-.03,.19-.05,.39-.05,.6,.06,.34-.05,.69-.32,1.06,.03,.19,.05,.39,.05,.6-.22,.03-.43,.08-.65,.14l-.28,.05,.14,.09-.09-.05-.18-.05-.32-.05h.05c-.09-.06-.12-.14-.09-.23h.05c.09-.22,.15-.4,.18-.55,.06,.03,.12,0,.19-.09,0-.15-.03-.26-.09-.32-.06-.06-.02-.18,.14-.37,0-.03-.02-.08-.05-.14-.03-.06-.08-.05-.14,.05v-.09c-.19,.46-.37,.92-.55,1.39-.03,.06-.05,.14-.05,.23-.03,.06-.06,.12-.09,.19,.12,.28,.15,.57,.09,.88-.06,.12-.15,.29-.28,.51-.22,.28-.34,.54-.37,.79-.06,.09-.05,.15,.02,.16,.08,.02,.15,.02,.21,.02,.15,.06,.29,.08,.42,.05,.28-.06,.46-.11,.55-.14,.09-.03,.2-.05,.32-.05v.14c.12-.06,.32-.13,.6-.21,.28-.08,.46-.07,.56,.02,.18-.06,.34-.09,.46-.09,.34-.12,.7-.19,1.09-.19s.69-.09,.9-.28c.25,.09,.3,.15,.16,.19-.14,.03-.21,.06-.21,.09h.46c-.03-.25-.06-.48-.09-.69Zm-4.95-14.15l.05-.05c.03-.06,.06-.12,.09-.19,.06-.06,.14-.14,.23-.23l.05-.05c-.12,.12-.23,.25-.32,.37-.06,.06-.09,.11-.09,.14Zm1.29,9.71c-.12,.31-.25,.62-.37,.92,.06,0,.1-.07,.12-.21,.02-.14,.08-.27,.21-.39,.06-.09,.08-.2,.05-.32Zm4.3,14.8c-.09-.03-.17-.02-.23,.05l-.19,.14,.42-.19Z"/><path class="cls-1" d="M57.14,22.29c-.06-.68-.04-1.33,.07-1.97,.11-.63,.21-1.32,.3-2.06,.03-.28,.09-.57,.19-.88,.22-.28,.49-.58,.81-.9,.32-.32,.73-.61,1.23-.86,.46-.25,.99-.43,1.57-.56,.28-.03,.6,0,.97,.09,.37,.09,.66,.28,.88,.55-.15-.09-.19-.09-.09,0,.09,.09,.18,.23,.28,.42,.18,.43,.31,.8,.37,1.11,.03-.06,.08,.02,.16,.25,.08,.23,.16,.44,.25,.62,.09,.19,.15,.29,.19,.3,.03,.02,.02-.21-.05-.67,.15,.68,.28,1.31,.37,1.9,.09,.46,.19,.91,.28,1.34,.09,.43,.17,.86,.23,1.29,.06,.46,.11,.92,.14,1.39,.15,.12,.34,.14,.55,.05,.49,.03,.83-.12,1.02-.46,0,.25-.03,.51-.09,.79,.19-.37,.3-.63,.35-.79,.05-.15,.12-.31,.21-.46,.06-.15,.14-.37,.23-.65,.12-.28,.19-.71,.19-1.29-.09,.71-.19,.88-.3,.51-.11-.37-.16-1.02-.16-1.94-.09-.56-.12-1.26-.09-2.1,.03-.85,.09-1.72,.19-2.61,.09-.86,.09-1.62,0-2.27,0-.28-.06-.59-.19-.92-.12,0-.25,.03-.37,.09l-.05-.05c-.46,.18-.89,.31-1.29,.37-.34,.06-.65,.06-.92,0-.34-.06-.54-.11-.6-.14-.4,0-.69-.03-.88-.09-.4-.09-.76-.28-1.06-.56-.28-.18-.49-.42-.62-.72s-.22-.58-.25-.86c-.09-.52-.15-1-.18-1.43-.09-.46-.02-1.02,.23-1.66,.25-.55,.57-1.03,.97-1.43l-.14,.14c.12-.19,.29-.35,.51-.51l-.14,.14c.15-.12,.31-.26,.46-.42,.55-.4,1.03-.69,1.43-.88,.52-.28,1.03-.48,1.53-.6,.25-.03,.49-.08,.74-.14,.15-.03,.31-.06,.46-.09,.31-.12,.54-.25,.69-.37,.03-.03,.05-.08,.05-.14,.06-.25,.37-.59,.92-1.02l-.28,.23c.19-.15,.35-.31,.51-.46,.15-.09,.29-.19,.42-.28,.31-.19,.66-.32,1.06-.42l.28-.09c.28-.09,.59-.14,.92-.14,.52,0,1,.14,1.43,.42l.23,.19c.09,.15,.15,.17,.19,.05l.14-.09,.32-.23c.28-.19,.51-.28,.69-.28,.31,.03,.54,.1,.69,.21,.15,.11,.32,.19,.51,.25,.31,.19,.57,.37,.79,.55,.4,.4,.63,.74,.69,1.02-.06-.03-.11-.08-.14-.14-.06,.06-.22,.04-.49-.07-.26-.11-.58-.21-.95-.3-.37-.19-.76-.22-1.16-.09-.4,.12-.74,.17-1.02,.14,.09-.03,.06-.05-.09-.05l-.23,.05,.05,.09h-.05l-.05-.09h-.05c-.09,.03-.19,.06-.28,.09-.12-.03-.23-.08-.32-.14l.05,.05c-.12-.09-.31-.2-.56-.32-.34-.06-.69-.05-1.06,.05-.15,.06-.34,.15-.55,.28-.22,.12-.06,.11,.46-.05-.19,.06-.34,.14-.46,.23,.22-.09,.45-.15,.69-.19,.37-.15,.71-.14,1.02,.05h.05c.09,.03,.17,.08,.23,.14,.12,.09,.23,.15,.32,.19l.19,.14,.09-.05,.14-.23,.09,.19v-.05l-.09-.14-.05-.05,.19,.19,.14,.14h.05l-.19-.32v-.05l.19,.37,.09-.05s.05-.03,.05,0c-.03-.03-.06-.05-.09-.05h-.05v-.05h.05c.06-.03,.14-.05,.23-.05h-.09c.4-.09,.69-.11,.88-.05,.12-.09,.22-.15,.28-.19,.8,.12,1.57,.37,2.31,.74,.12,.09,.25,.19,.37,.28,.25,.12,.51,.34,.79,.65,.22,.22,.39,.51,.51,.88,.12,.34,.14,.71,.05,1.11v.05l.05,.05v.23l.05,.69-.28-.23c-.28,.59-.66,1.05-1.16,1.39-.31,.25-.65,.43-1.02,.56-.4,.15-.8,.17-1.2,.05-.12-.03-.26-.06-.42-.09,.03,.28,.05,.54,.05,.79,.06,.59,.11,1.19,.14,1.8,.06,1.23,0,2.48-.19,3.75-.09,1.02-.17,1.81-.23,2.38-.06,.57-.11,1.13-.14,1.69l.14-.14-.05,.28v.19l1.39,.55c-.28,.31-.57,.6-.88,.88l-.83,.51c0,.37-.02,.72-.05,1.06-.12,.99-.26,1.54-.42,1.66-.09,.37-.19,.74-.28,1.11-.31,1.51-1,2.96-2.08,4.35-.71,.83-1.55,1.51-2.52,2.03-.97,.52-1.97,.79-2.98,.79-.46-.09-.6-.13-.42-.12,.18,.02,.46,0,.83-.02,.28,0,.54-.04,.79-.12,.25-.08,.4-.13,.46-.16-.68,.15-1.37,.19-2.08,.09-1.14-.15-2.19-.55-3.14-1.2-.92-.49-1.75-1.15-2.47-1.96-.72-.82-1.27-1.67-1.64-2.57-.12-.37-.29-.88-.49-1.53-.2-.65-.35-1.2-.44-1.66l-.14-.18Zm7.03-17.48c.15-.06,.39-.18,.69-.37,.49-.25,1.08-.4,1.76-.46,.68-.06,1.26-.23,1.76-.51,.12-.06,.26-.19,.42-.37-.09,.09-.26,.18-.51,.28-.25,.15-.57,.31-.97,.46-.43,.09-.92,.15-1.48,.19-.65,.22-1.2,.48-1.66,.79Zm5.87-2.82l.05-.05s.06-.02,.09-.05c-.03,.03-.08,.06-.14,.09Zm3.05-.65v-.23l-.05-.23h-.14l.19,.46Zm.14,.69l-.05,.05,.09,.09-.05-.14Zm1.11,17.2s.08-.03,.14-.09c.03-.06-.02-.03-.14,.09Zm.19-.42v0Z"/><path class="cls-1" d="M84.11,18.45c.23-.55,.47-.92,.72-1.11,0,.06-.02,.12-.05,.19,.03,.03,.05,.21,.05,.53v2.47c0,.43,.05,.77,.14,1.02-.06-.12-.08-.05-.07,.23,.02,.28,.04,.51,.07,.69,.15,.77,.28,1.23,.37,1.36,.09,.14,.23,.53,.42,1.18,.06,.18,.15,.46,.28,.83,.06,.19,.15,.39,.28,.6,.12,.22,.11,.03-.05-.55l.05,.14c-.12-.37-.23-.74-.32-1.11-.12-.4-.23-.82-.32-1.25v.05c-.03-.15-.06-.32-.09-.51,0-.12-.02-.23-.05-.32-.09-.46-.17-.92-.23-1.39v.09c-.19-1.39-.2-2.8-.05-4.25,.03-.28,.05-.54,.05-.79-.06-.86-.09-1.93-.09-3.19,0-1.57,.05-3.22,.14-4.95h-.65c.09-.06,.08-.1-.02-.12-.11-.02-.12-.05-.02-.12l-.18-.05h.05c-.12-.06-.15-.15-.09-.28h-.19c-.03-.12,.02-.23,.14-.32-.12,.03-.16,.03-.12,0,.05-.03,.04-.06-.02-.09,.09-.03,.14-.08,.14-.14-.06-.03-.12-.03-.19,0l.05-.05h.19s.03-.03,0-.09c-.09,.03-.19,.03-.28,0v-.09h.14l-.05-.09,.32-.05h-.05c-.22-.03-.26-.09-.14-.19h-.05l.42-.14c-.12-.03-.25-.02-.37,.05v-.09c.12,0,.25-.02,.37-.05l.09,.05,.14-.05h.09l.14-.05,.18-.05-.05,.09h.09v-.51l-.05-.14c-.12-.58-.06-1.12,.19-1.62,.09-.22,.21-.45,.35-.72,.14-.26,.33-.49,.58-.67,.37-.37,.8-.64,1.29-.81,.49-.17,1-.3,1.53-.39,.25-.03,.46-.06,.65-.09l-.09,.19c.09,0,.2-.02,.32-.05l.18-.09v.23c.06,.03,.14,.06,.23,.09l.14-.18,.19,.09c.25,.06,.49,.17,.74,.32l.05,.19c.15,.09,.32,.25,.51,.46l.05,.05v.05c.4,.46,.63,1.06,.69,1.8,0,.71-.03,1.4-.09,2.08-.09,.55-.19,1.02-.28,1.39-.09,.37-.17,.59-.23,.65-.03,.22-.08,.42-.14,.6-.06,.09-.08,.18-.05,.28-.25,1.85-.37,3.85-.37,6.01,.03,1.2,.05,2.42,.07,3.65,.02,1.23,.21,2.36,.58,3.38,.06,.52,.05,.69-.02,.49-.08-.2-.16-.5-.25-.9-.09-.25-.16-.5-.21-.76-.05-.26-.07-.45-.07-.58,.19,1.39,.46,2.57,.83,3.56,.46,1.08,1.19,1.29,2.17,.65,.06-.03,.12-.08,.19-.14,.55-.52,.97-1.14,1.25-1.85,.46-1.42,.77-2.8,.92-4.16,.12-.4,.2-.99,.23-1.78,.03-.79,.05-1.44,.05-1.96l-.14-.19c.03-.74,.08-1.47,.14-2.2,.06-.72,.02-1.5-.14-2.33l-.19-.97c.09-.55,.08-1.24-.02-2.06-.11-.82-.13-1.72-.07-2.71-.06-.22-.08-.45-.05-.69-.03-.43,.05-.88,.23-1.34-.06,.19-.07,.22-.02,.12,.05-.11,.15-.25,.3-.44l.05-.05,.09-.05c.09-.19,.21-.38,.35-.58,.14-.2,.25-.35,.35-.44-.09,.03-.05-.07,.14-.3,.19-.23,.42-.41,.69-.53,.28-.09,.43-.15,.46-.18,.09-.06,.31-.07,.65-.02,.34,.05,.65,.1,.92,.16,.68,.22,1.28,.52,1.8,.92,.52,.4,.96,.92,1.29,1.57,.28,.59,.45,1.26,.51,2.03,.19,.4,.32,.82,.42,1.25,.03,1.08,0,2.02-.09,2.82l-.23-.83c0,.65,0,1.12-.02,1.41-.02,.29-.05,.56-.09,.81-.05,.25-.09,.53-.12,.85-.03,.32-.05,.84-.05,1.55,.09-.8,.19-.99,.3-.56,.11,.43,.16,1.19,.16,2.27,.06,.83,.02,1.83-.12,2.98-.14,1.16-.35,2.3-.62,3.44-.28,1.17-.57,2.21-.88,3.12-.31,.91-.45,1.56-.42,1.96-.06,.15-.12,.28-.19,.37-.03,.03-.06,.08-.09,.14l.05,.05c-.22,.46-.45,.91-.69,1.34-.25,.49-.52,.96-.83,1.39-.31,.43-.66,.8-1.06,1.11-.12,.09-.29,.24-.49,.44s-.39,.36-.58,.49c-.83,.62-1.77,1.07-2.82,1.36-1.05,.29-2.17,.35-3.38,.16-.8-.12-1.5-.31-2.08-.55l-.88-.32-.42-.19c-.09-.06-.28-.12-.55-.19l-.88-.83,.14,.14c-.92-.65-1.73-1.43-2.4-2.36-.37-.46-.66-.97-.85-1.53-.2-.55-.39-1.16-.58-1.8-.12-.49-.23-1.02-.32-1.57-.34-.92-.57-2-.69-3.24,.15-.83,.35-1.53,.58-2.08Zm8.48,13.27c-.86-.22-1.8-.55-2.82-1.02h-.05c-.19-.19-.37-.39-.56-.6-.59-.46-1.09-1-1.53-1.62,.09,.37,.59,.92,1.48,1.66,.18,.18,.4,.37,.65,.55,.15,.12,.34,.23,.56,.32,.77,.34,1.53,.57,2.27,.69Zm-2.77-29.87l-.05,.14c-.09,.03-.15,.06-.18,.09l.18-.05v-.05c.09-.03,.19-.05,.28-.05l.09,.05v-.05l.05-.05v-.09c-.12-.03-.25-.02-.37,.05Zm.37-.09v.14l.05-.09-.05-.05Zm.05,.23l-.05,.05,.05-.05Zm.14-.09l-.05,.09h.09s.02-.06-.05-.09Zm11.7,24.41s-.06-.05-.09-.05l.09,.05Z"/><path class="cls-1" d="M124.97,6.15l-1.16-.05,.19-.97,1.16,.14c.03-.37,.08-.37,.14,0l.09,.05v-.6c0-.06,.05-.15,.14-.28,.09-.15,.15-.25,.19-.28,.28-.12,.55-.35,.83-.69,.18-.25,.34-.42,.46-.51,.09-.12,.23-.22,.42-.28,.28-.12,.57-.22,.88-.28,.31,0,.62,.03,.92,.09,.34,.06,.66,.15,.97,.28,.49,.37,.96,.35,1.39-.05,.37-.09,.8-.19,1.29-.28,.49-.22,.94-.39,1.34-.51l.09-.18c.55-.06,1.09-.11,1.6-.14,.51-.03,1.09-.08,1.73-.14h.74c.55,.28,.92,.46,1.11,.53,.18,.08,.42,.18,.69,.3,.31,.19,.65,.41,1.04,.67,.39,.26,.72,.58,.99,.95l.09,.09v.05c.03,.06,.06,.12,.09,.19-.19-.19-.16-.08,.07,.32,.23,.4,.36,.69,.39,.88,0-.06,.05,0,.16,.16,.11,.17,.21,.33,.3,.49,.09,.15,.15,.23,.18,.23s0-.19-.09-.55c.43,1.08,.72,2.02,.88,2.82,.21,.8,.25,1.73,.09,2.77,.09,.31,.15,.62,.18,.92-.03,.46-.12,.84-.28,1.13s-.28,.56-.37,.81l-.05-.6c-.12,.59-.26,1-.42,1.25-.09,.18-.16,.33-.21,.44-.05,.11-.15,.3-.3,.58l.05-.05c-.15,.25-.29,.51-.42,.79,.28-.37,.4-.45,.37-.23-.03,.22-.08,.46-.14,.74-.03,.03-.03,.08,0,.14,.25,.06,.43,.12,.55,.18l.09,.09c.09,.06,.18,.12,.28,.19,.21,.12,.38,.28,.51,.46,.55,.74,.92,1.59,1.11,2.54,.25,.99,.25,1.85,.02,2.59-.23,.74-.29,1.25-.16,1.53-.18,.37-.34,.71-.46,1.02-.18,.31-.34,.6-.46,.88l-.09,.14s0-.02-.09-.05l-.09,.32c-.09,.12-.22,.32-.37,.58-.15,.26-.31,.49-.46,.67-.34,.43-.72,.83-1.16,1.2-.8,.77-1.83,1.37-3.1,1.8-.83,.25-1.59,.4-2.27,.46h.14c-.96,.19-1.85,.37-2.68,.55-.43,.03-.88,.03-1.34,0-.37,0-.77-.02-1.2-.05-.22,.03-.37,.05-.46,.05-.06,0-.08,0-.05,0h-.05c-.37,.25-.71,.42-1.02,.51l-.05,.05,.19-.05c-.09,.03-.17,.06-.23,.09-.31,.22-.67,.36-1.09,.44-.42,.08-.76,.1-1.04,.07-.43-.19-.77-.4-1.02-.65-.37-.28-.6-.54-.69-.79-.22-.49-.26-.86-.14-1.11,0,.03,.02,.08,.05,.14,.06,0,.18,.08,.35,.23,.17,.15,.41,.32,.72,.51,.28,.19,.59,.31,.95,.37,.35,.06,.65,.03,.9-.09-.06,.09,.06,.08,.37-.05,.06-.03,.14-.06,.23-.09,.09-.03,.17-.05,.23-.05h-.09c.31-.09,.52-.19,.62-.3,.11-.11,.19-.21,.25-.3,.09-.15,.45-.23,1.06-.23,.15,.03,.32,.03,.51,0,.19-.03,.08-.08-.32-.14l.65-.05c-.19,.03-.39,.03-.6,0l-.23-.05c-.37,.03-.72,.06-1.06,.09-.03,.03-.08,.06-.14,.09s-.12,.08-.19,.14h.05s-.08,.02-.14,.05c-.19,.12-.37,.22-.56,.28-.12,.03-.26,.08-.42,.14-.03,0-.08,.02-.14,.05-.06,.03-.12,.06-.18,.09h.05c-.4,.19-.91,.14-1.53-.14-.37-.12-.74-.43-1.11-.92-.12-.15-.23-.34-.32-.55-.09-.12-.22-.25-.37-.37-.34-.37-.65-.85-.92-1.43-.15-.28-.3-.58-.44-.9s-.19-.7-.16-1.13c0-.37,.12-.72,.37-1.06,.25-.34,.46-.58,.65-.74,.09-.55,.12-1.25,.09-2.08-.03-.83-.06-1.65-.09-2.45-.12-.34-.2-.74-.23-1.2,0-.31,.05-.55,.14-.74l-.05,.05v-.14c.15-.28,.28-.48,.37-.6,.03-.15,.02-.32-.02-.49-.05-.17-.07-.35-.07-.53,.03-.31,.05-.65,.05-1.02l.09-.09c-.03-.34-.05-.82-.05-1.43v-1.8l-1.25,.05c0-.31,0-.53-.02-.67s-.02-.52-.02-1.13l1.39-.05c.03,.06,.05,.14,.05,.23v-.23h0c0,.06,.02,.14,.05,.23l.05-.05c0-.06-.02-.12-.05-.19h0c.03-1.32,.02-2.65-.05-3.98l-.18-.05v-.05l.14,.05h.05v-.79l-.09-.05c0,.25,.02,.49,.05,.74h-.14c-.03-.21-.06-.46-.09-.74-.06,.22-.11,.45-.14,.69v.05Zm.46,.09h.05l-.05-.09v.09Zm7.12,3.51c-.03,.06-.05,.12-.05,.18,0,.25,0,.52-.02,.83-.02,.31-.12,.59-.3,.83-.31,.46-.46,.97-.46,1.53,.09,.43,.08,.76-.05,.97h-.14v.67c0,.26-.08,.49-.23,.67v.09h.14c.46-.09,.9-.14,1.32-.14s.84-.09,1.27-.28c.18,.09,.17,.16-.05,.21-.22,.05-.32,.09-.32,.12,.37,0,.74-.03,1.11-.09h.14c.43-.28,.83-.49,1.2-.65,.09,.03,.2,0,.32-.07,.12-.08,.22-.16,.28-.25l-.09-.14c.09-.06,.22-.12,.37-.16,.15-.05,.25-.16,.28-.35v-.23c.22,0,.32-.13,.32-.39s.06-.5,.18-.72c0,.09,.03,.09,.09-.02,.06-.11,.14-.18,.23-.21-.12,0-.18-.08-.16-.23,.01-.15-.04-.15-.16,0,.15-.28,.18-.51,.07-.69-.11-.19-.07-.42,.12-.69l-.23-.23c-.03-.22,.01-.39,.14-.51l.23,.14c-.09-.22-.09-.35,0-.39s.12-.21,.09-.49c-.06,.19-.15,.25-.25,.19-.11-.06-.21-.19-.3-.37-.22-.25-.35-.52-.42-.83-.15-.34-.34-.39-.55-.14,0-.06-.02-.09-.05-.09-.06-.03-.12-.05-.18-.05-.12,0-.25,.02-.37,.05-.22,.09-.43,.19-.65,.28-.12,0-.22,.08-.3,.23-.08,.15-.15,.31-.21,.46-.06,.31-.25,.57-.56,.79,0,.19-.03,.37-.09,.55-.46,0-.91-.06-1.34-.19h.05c-.12-.06-.12-.17,0-.32,.12-.15,.21-.28,.28-.37,.06,.06,.12,.03,.19-.09,.06-.15,.08-.25,.05-.3-.03-.05,.05-.15,.23-.3v-.16c0-.08-.05-.08-.14-.02l.05-.09c-.43,.46-.79,.96-1.06,1.48Zm5.09,12.3c.22,.03,.42,.05,.6,.05-.37-.25-.79-.39-1.25-.42-.22,.06-.38,.08-.49,.07-.11-.02-.21-.05-.3-.12v-.09h-.55c-.25,0-.4-.06-.46-.18-.12,0-.26-.02-.42-.05-.31,.06-.63,.09-.97,.07-.34-.02-.65,.04-.92,.16-.12-.06-.13-.12-.02-.16,.11-.05,.21-.08,.3-.12h-.97c-.31,.15-.54,.29-.69,.42-.12,.06-.14,.22-.05,.46l.14,.14c-.03,.09-.08,.18-.14,.25-.06,.08-.05,.18,.05,.3l.14,.14c-.18,.09-.22,.23-.12,.42,.11,.19,.15,.34,.12,.46-.06,0-.11,.04-.14,.12-.03,.08-.06,.15-.09,.21,.09-.06,.15-.05,.19,.02,.03,.08,.09,.02,.18-.16-.09,.15-.09,.25,0,.28,.09,.03,.18,.03,.28,0,.18-.03,.31,0,.37,.09,.09-.06,.17-.14,.23-.23,.06-.03,.14,.03,.23,.19l-.14,.28c.19-.03,.29,0,.3,.07,.02,.08,.15,.12,.39,.12-.12-.06-.16-.14-.09-.23,.06-.09,.17-.17,.32-.23,.19-.22,.49-.25,.9-.12,.42,.14,.64,0,.67-.39,.28,.03,.53-.02,.76-.14,.23-.12,.49-.26,.76-.42,.31-.12,.51-.32,.6-.6,.06-.28,.21-.43,.46-.46-.06-.09-.12-.15-.18-.19Zm-3.7-14.15c.09-.03,.2-.12,.32-.28-.12,.09-.23,.18-.32,.28Zm.05,23.16c.25,.06,.65,.03,1.2-.09-.37,.06-.76,.09-1.16,.09h-.05Zm.65-23.81c-.12,.12-.25,.25-.37,.37,.06-.03,.14-.08,.23-.14,.09-.09,.19-.19,.28-.28-.03,0-.08,.02-.14,.05Zm3.61,23.21c-.56,.15-1.11,.26-1.67,.32-.31,.06-.6,.11-.88,.14,.28-.06,.55-.09,.83-.09h.09c.62-.09,1.16-.22,1.62-.37Zm-.88-6.2l.05-.05c.19-.09,.42-.23,.69-.42l.05-.05c-.09-.03-.16,0-.21,.12-.05,.11-.15,.16-.3,.16-.09,.06-.18,.14-.28,.23Zm1.9-1.71l-.05-.05c-.06-.03-.12-.05-.19-.05v-.05h-.05s-.02,.06-.05,.09c-.09,.09-.16,.19-.19,.28-.03-.03-.08-.02-.14,.05-.06,.03-.08,.06-.05,.09v.21s-.06,.09-.18,.12c0,.03,0,.08-.02,.14-.02,.06,.02,.08,.12,.05l-.05,.14c.12-.12,.25-.23,.37-.32l.05-.05,.05-.05s.06-.06,.09-.09c0-.03,.02-.06,.05-.09v.05c.09-.15,.17-.31,.23-.46Zm-.28-.19h0Z"/><path class="cls-1" d="M176.66,15.58v.14c-.46,1.02-.91,1.66-1.34,1.94v-.05s-.02,.05-.05,.05v-.09c-.09,0-.12-.23-.07-.69,.05-.46,.08-.91,.12-1.34l-.05-.14h-.32s.02,.06,.05,.09c-.03,.71-.08,1.42-.14,2.13v.05c-.03,.19-.06,.37-.09,.56,.06,.46,.08,1,.05,1.62l.05,.09v.05c-.09,.62-.22,1.26-.39,1.94-.17,.68-.36,1.31-.58,1.9-.37,.74-.76,1.53-1.16,2.38-.4,.85-.89,1.64-1.48,2.38-.49,.65-.92,1.13-1.29,1.43-.37,.31-.77,.59-1.2,.83l-.14-.05c-.25,.19-.61,.4-1.09,.65-.48,.25-.95,.42-1.41,.51-.46,.12-.86,.2-1.2,.23-.34,.03-.51,0-.51-.09-.28,.06-.55,.09-.83,.09-1.17,.15-2.39,.03-3.65-.37-1.57-.56-2.96-1.29-4.16-2.22-.22-.28-.26-.38-.14-.3,.12,.08,.29,.19,.51,.35,.37,.28,.63,.45,.79,.51-1.11-.8-2.05-1.8-2.82-3.01-.22-.15-.39-.35-.51-.6l-.09-.09-.05-.09c-.52-.86-.94-1.71-1.25-2.54l-.88,.28v-.09c.06-.12,.03-.21-.09-.25-.12-.05-.15-.13-.09-.25l-.19-.14,.05,.05c-.06-.12-.13-.22-.21-.28-.08-.06-.09-.19-.02-.37l-.19-.09c-.06-.25-.05-.49,.05-.74-.12,.03-.17,0-.14-.07,.03-.08,.01-.15-.05-.21,.09-.06,.12-.15,.09-.28-.06-.06-.12-.09-.18-.09l.05-.09,.18,.09c.03-.06,.03-.14,0-.23-.12,.03-.23,0-.32-.09l.05-.23,.09,.05-.05-.19,.32-.09c-.09-.09-.08-.19,.05-.28-.09-.09-.2-.18-.32-.28-.12-.09-.12-.22,0-.37-.09-.06-.17-.14-.23-.23,.43-.12,.85-.22,1.25-.28v.05c.06-.46,.06-1,0-1.62l-.09-.65c.18-.46,.26-1.09,.23-1.87-.03-.79,.09-1.61,.37-2.47-.03,.22,.02,.13,.16-.25,.14-.39,.25-.65,.35-.81-.09,.03-.12-.03-.09-.19,.03-.15,.05-.31,.07-.46,.01-.15,.02-.25,.02-.28s-.06,.09-.18,.37c.4-.92,.7-1.74,.9-2.45,.2-.71,.64-1.45,1.32-2.22,.09-.25,.18-.51,.28-.79,.46-.58,.91-1.03,1.34-1.34l-.23,.6c.52-.62,.87-.93,1.04-.95,.17-.02,.64-.33,1.41-.95-.46,.28-.62,.29-.49,.02,.14-.26,.53-.61,1.18-1.04,.4-.37,1-.69,1.8-.95,.8-.26,1.62-.39,2.45-.39s1.52,.02,2.15,.07c.63,.05,1.09,0,1.36-.16,.09,.03,.18,.06,.28,.09l.46,.09,.14,.23c.03,.06,.06,.12,.09,.19,.28,.06,.49,.15,.65,.28,.15,.12,.28,.22,.37,.28,.06,.06,.23,.15,.51,.28,.55,.28,1.06,.6,1.53,.97,.96,.77,1.77,1.73,2.45,2.87,.34,.83,.68,1.54,1.02,2.13,.34,.59,.65,1.16,.92,1.71,.28,.62,.48,1.24,.6,1.87,.12,.63,.23,1.36,.32,2.2,.06,.19,.12,.37,.18,.55l.32-.46,.05,1.99Zm-25.2,3.79c-.06,.09-.06,.14,0,.14v-.14Zm.42,2.87s-.06-.05-.09-.05c.03,0,.06,.02,.09,.05Zm17.15-5.73c-.15-.34-.29-.79-.42-1.36-.12-.57-.16-1.13-.09-1.69,.03-.89-.22-1.8-.74-2.73-.37-.46-.6-.75-.69-.88-.09-.12-.22-.31-.37-.55l.05-.09c-.28-.28-.66-.57-1.16-.88-.4-.19-.66-.32-.79-.42-.12-.03-.25-.05-.37-.05-.71,.09-1.42,.34-2.13,.74-.71,.4-1.25,.91-1.62,1.53-.25,.19-.29,.17-.14-.05,.15-.22,.28-.4,.37-.55-.43,.37-.8,.8-1.11,1.29-.09,.12-.19,.26-.28,.42-.28,.83-.54,1.59-.79,2.27-.12,.12-.23,.32-.32,.58-.09,.26-.14,.49-.14,.67l.14,.09c-.03,.06-.05,.12-.05,.19-.03,.06-.06,.12-.09,.18h0c-.06,.12-.11,.28-.14,.46,.09,.06,.09,.12,0,.19,.09,.06,.11,.12,.05,.16-.06,.05-.11,.07-.14,.07v.18c.09,.03,.09,.06,0,.09v.05h.23c0,.12-.03,.19-.09,.21-.06,.02,0,.05,.18,.12l.09,.05-.32,.14c.09,.06,.22,.1,.37,.12,.15,.02,.2,.07,.14,.16,.03,.09,.05,.17,.05,.23l-.14,.05-.09-.05s-.09,.07-.16,.12c-.08,.05-.07,.09,.02,.12,.34,.06,.51,.15,.51,.28l-.88-.05c.06,.34,.09,.72,.09,1.16-.06-.09-.1-.03-.12,.19-.02,.22-.04,.37-.07,.46,.09-.03,.15,.08,.19,.35,.03,.26,.09,.21,.18-.16-.06,.55,0,.99,.21,1.29,.2,.31,.33,.69,.39,1.16,.12,.09,.26,.17,.42,.23,.15,.31,.26,.59,.32,.83l-.37-.09c.28,.28,.41,.48,.39,.6-.02,.12,.16,.35,.53,.69-.18-.22-.18-.32,.02-.3,.2,.02,.44,.1,.72,.25,.25,.06,.51,.16,.79,.3s.58,.24,.92,.3c.31,.09,.61,.1,.9,.02,.29-.08,.45-.22,.49-.44,.52-.09,.96-.35,1.29-.76,.34-.42,.69-.92,1.06-1.5,.43-.65,.62-1.26,.58-1.83-.05-.57,.1-1.23,.44-1.97-.06-.31-.09-.65-.09-1.02l.18-.14v-.14c.18,0,.38-.12,.6-.37,.18-.18,.37-.29,.55-.32l-.05,.09c.06,.03,.08,.15,.07,.35-.02,.2-.02,.36-.02,.49-.06,.28-.09,.48-.09,.6-.03-.03-.06,0-.09,.07-.03,.08-.05,.15-.05,.21-.03,.31-.02,.49,.02,.55,.05,.06,0,.28-.12,.65,0,.09,0,.18,.02,.25,.02,.08,.07,.02,.16-.16v.23c.09-.34,.17-.66,.23-.97,.03-.03,.05-.06,.05-.09,.06-.43,.12-.86,.18-1.29,.06-.12,.08-.26,.05-.42-.03-.19-.02-.34,.05-.46v-.28Zm-.79,4.48v-.14c-.12,.09-.19,.25-.21,.49-.02,.23-.12,.47-.3,.72-.06,.22-.14,.43-.23,.65,.28-.49,.52-1.06,.74-1.71Zm4.95-13.08c-.18-.46-.39-.86-.6-1.2,.46,.89,.86,1.8,1.2,2.73,.09,.25,.17,.48,.23,.69,.03-.15-.02-.39-.14-.69-.22-.37-.45-.88-.69-1.53Zm1.34,3.84c-.06-.15-.08-.05-.05,.32l-.09-.32c.19,.99,.34,1.97,.46,2.96v.32s.01,.06,.05,.09h.05l.09-.05-.05,.05h.09q.06,0,0,0h.14v-.05l-.14,.05,.14-.05c-.06,.06-.11,.08-.14,.05v-.05h.14s-.02-.06-.05-.09c.03,.12,.05,.09,.07-.09,.02-.19,.02-.35,.02-.51-.12-.55-.23-.88-.32-.97-.09-.09-.17-.52-.23-1.29-.06-.09-.12-.22-.19-.37Z"/><path class="cls-1" d="M181.65,26.26c-.18-.65-.31-1.37-.37-2.17,.37-1.14,.8-1.86,1.29-2.17,0,.06-.02,.11-.05,.14,.09,.06,.12,.44,.09,1.13-.03,.69-.02,1.23,.05,1.6-.06-.09-.1-.04-.12,.16-.02,.2-.02,.36-.02,.49,.06,.65,.14,1,.23,1.06,.09,.06,.17,.49,.23,1.29,.03,.12,.08,.27,.16,.44,.08,.17,.1,.05,.07-.35l.18,.65v-.05c-.12-.74-.23-1.48-.32-2.22l-.05,.05c-.03-.52-.06-1.03-.09-1.53,0,.03,.01,.06,.05,.09-.06-.99-.06-1.97,0-2.96v-.6c-.09-.65-.18-1.52-.25-2.61-.08-1.09-.02-2.18,.16-3.26,.19-.83,.23-1.73,.14-2.68-.09-.96-.16-1.94-.19-2.96-.09-.83-.15-1.49-.18-1.96-.03-.48,0-.99,.09-1.55l.14-.09c0-.28,.02-.65,.07-1.13,.05-.48,.15-.95,.3-1.41,.12-.46,.33-.85,.62-1.16s.52-.48,.67-.51h.05s.03,.05,0,.05c.09-.06,.19-.11,.28-.14,.03-.03,.06-.06,.09-.09,.09-.03,.18-.06,.28-.09l.09-.05c.37-.19,.8-.26,1.29-.23,.49,.09,.99,.2,1.48,.32h-.05l.51,.05h.09v.09l.05,.28,.37,.32c.55-.52,1.2-.92,1.94-1.18,.74-.26,1.46-.49,2.17-.67h.05c.28,0,.39,.02,.32,.05-.06,.03-.17,.06-.32,.09h.05c-.22,.06-.47,.12-.76,.19-.29,.06-.49,.11-.58,.14,.46-.06,.91-.12,1.34-.19,.12-.06,.21-.08,.28-.05,.99-.09,1.91-.08,2.77,.05,.56,0,1.12,.08,1.71,.23,1.08,.28,1.97,.77,2.68,1.48,.19,.28,.44,.64,.76,1.09,.32,.45,.58,.81,.76,1.09l.18,.05c.22,.49,.39,.98,.51,1.46,.12,.48,.32,.98,.6,1.5l.32,.65c-.06,.55,.02,1.23,.25,2.01,.23,.79,.33,1.64,.3,2.57-.06-.22-.1-.11-.12,.32-.02,.43-.05,.72-.12,.88,.03,0,.05,.09,.07,.28s.02,.36,.02,.53,.02,.25,.05,.25,.09-.19,.19-.56c-.19,1.11-.28,2.04-.28,2.8s-.2,1.6-.6,2.52v.88c-.25,.71-.52,1.29-.83,1.76v-.65c-.28,.83-.49,1.29-.62,1.39s-.42,.59-.86,1.48c.28-.46,.41-.53,.39-.21s-.18,.81-.49,1.46c-.18,.55-.54,1.17-1.06,1.85-.52,.68-1.11,1.28-1.76,1.8-.65,.55-1.27,.99-1.87,1.32-.6,.32-.98,.62-1.13,.9-.65,.28-1.26,.46-1.83,.53s-1.13,.18-1.69,.3c-.28,.03-.48,.05-.6,.05l-.28-.05h-.79c-.31-.06-.62-.12-.92-.18-.31-.09-.63-.17-.97-.23-.22-.06-.39-.11-.51-.14-.19,.03-.39,.05-.6,.05-.28,0-.55,.02-.81,.07-.26,.05-.53,.04-.81-.02-.31-.09-.59-.2-.83-.32-.12-.06-.25-.12-.37-.19-.06-.06-.11-.09-.14-.09,0,.03-.11,.02-.32-.05-.22-.06-.42-.15-.6-.28-.09-.06-.2-.14-.32-.23l-.28,.05-.42-1.16c-.4-1.05-.63-2.34-.69-3.88Zm2.03,3.56c.06,.03,.14,.05,.23,.05-.03,.06-.08,.12-.14,.19-.06,.19-.02,.31,.14,.37,.28,.12,.57,.25,.88,.37,.12,.12,.25,.23,.37,.32,.25,.19,.49,.28,.74,.28s.51-.03,.79-.09c-.28,.03-.51,.05-.69,.05-.43-.09-.82-.28-1.16-.56-.43-.12-.74-.26-.92-.42-.15-.12-.11-.28,.14-.46-.06-.03-.11-.05-.14-.05,.03,0,.05-.02,.05-.05h-.28Zm.42,.05v-.05h-.09l.05,.05h.05Zm6.24-18.73c-.12,.83-.25,1.6-.37,2.31-.09,.15-.17,.35-.23,.6-.06,.25-.08,.46-.05,.65l.14,.09c-.06,.28-.14,.54-.23,.79-.09,.25-.09,.51,0,.79l.09,.32c-.22,.28-.27,.62-.16,1.02,.11,.4,.16,.83,.16,1.29-.06-.09-.1-.04-.12,.16-.02,.2-.04,.35-.07,.44,.09-.03,.15,.09,.18,.37,.03,.28,.09,.23,.19-.14-.09,.55-.08,1.02,.05,1.39,.12,.37,.14,.8,.05,1.29l.32,.37c.03,.31,0,.6-.09,.88l-.28-.23c.09,.4,.09,.65,0,.74-.09,.09-.05,.34,.14,.74-.03-.25,.02-.32,.16-.23s.3,.19,.49,.28c.25,.06,.51,.08,.79,.05v-.19l.09,.14c.09,0,.2-.03,.32-.09,.28-.09,.52-.24,.74-.44,.21-.2,.32-.41,.32-.62,.52-.34,.92-.74,1.18-1.2s.5-1.03,.72-1.71c.25-.74,.39-1.4,.42-1.99,0-.28,.03-.57,.09-.88,0-.31,.05-.66,.14-1.06-.06-.31-.11-.65-.14-1.02,.46-.49,.91-.8,1.34-.92l-.05,.09c.09,.03,.12,.22,.07,.56-.05,.34-.07,.6-.07,.79-.03-.03-.06,0-.09,.07-.03,.08-.05,.15-.05,.21,0,.31,.03,.5,.09,.58,.06,.08,.05,.3-.05,.67,0,.09,.02,.17,.07,.23,.05,.06,.1,0,.16-.19v.37l.05-.05c.03-.28,.06-.65,.09-1.11l-.05,.05c.06-.28,.09-.54,.09-.79v.09c.03-.43,.06-.94,.09-1.53v-.37c-.12-.34-.22-.77-.3-1.29-.08-.52-.07-1.06,.02-1.62,.12-.89,.03-1.83-.28-2.82-.25-.52-.4-.86-.46-.99s-.14-.35-.23-.62l.09-.09c-.09-.09-.22-.24-.39-.44-.17-.2-.36-.35-.58-.44h-.05v.05l-.05,.05v-.09l-.05-.05v0h-.18c-.03,.06-.06,.06-.09,0,0,.12-.03,.11-.09-.05h-.05c0,.15-.02,.17-.05,.05l.05,.23c-.06,.03-.1,.02-.12-.02-.02-.05,0,.02,.02,.21v.05l-.14-.28c0,.09,.02,.23,.05,.42,.03,.18,.03,.23,0,.14h-.09v-.14s-.05-.02-.07-.07c-.02-.05-.02-.04-.02,.02,.12,.31,.15,.48,.09,.51l-.37-1.02h-.05c-.34,.25-.68,.51-1.02,.79,.03,.22-.03,.39-.18,.51-.16,.12-.31,.22-.46,.28-.28,.55-.51,1.16-.69,1.8-.25,.25-.29,.22-.14-.09s.23-.51,.23-.6c-.19,.37-.4,.74-.65,1.11-.19,.31-.34,.6-.46,.88Zm6.08,8.44c-.02,.23-.1,.49-.25,.76-.06,.31-.12,.6-.18,.88,.28-.71,.51-1.4,.69-2.08-.15,.06-.24,.21-.25,.44Z"/><path class="cls-1" d="M235.66,15.58v.14c-.46,1.02-.91,1.66-1.34,1.94v-.05s-.02,.05-.05,.05v-.09c-.09,0-.12-.23-.07-.69,.05-.46,.08-.91,.12-1.34l-.05-.14h-.32s.02,.06,.05,.09c-.03,.71-.08,1.42-.14,2.13v.05c-.03,.19-.06,.37-.09,.56,.06,.46,.08,1,.05,1.62l.05,.09v.05c-.09,.62-.22,1.26-.39,1.94-.17,.68-.36,1.31-.58,1.9-.37,.74-.76,1.53-1.16,2.38-.4,.85-.89,1.64-1.48,2.38-.49,.65-.92,1.13-1.29,1.43-.37,.31-.77,.59-1.2,.83l-.14-.05c-.25,.19-.61,.4-1.09,.65-.48,.25-.95,.42-1.41,.51-.46,.12-.86,.2-1.2,.23-.34,.03-.51,0-.51-.09-.28,.06-.55,.09-.83,.09-1.17,.15-2.39,.03-3.65-.37-1.57-.56-2.96-1.29-4.16-2.22-.22-.28-.26-.38-.14-.3,.12,.08,.29,.19,.51,.35,.37,.28,.63,.45,.79,.51-1.11-.8-2.05-1.8-2.82-3.01-.22-.15-.39-.35-.51-.6l-.09-.09-.05-.09c-.52-.86-.94-1.71-1.25-2.54l-.88,.28v-.09c.06-.12,.03-.21-.09-.25-.12-.05-.15-.13-.09-.25l-.19-.14,.05,.05c-.06-.12-.13-.22-.21-.28-.08-.06-.09-.19-.02-.37l-.19-.09c-.06-.25-.05-.49,.05-.74-.12,.03-.17,0-.14-.07,.03-.08,.01-.15-.05-.21,.09-.06,.12-.15,.09-.28-.06-.06-.12-.09-.18-.09l.05-.09,.18,.09c.03-.06,.03-.14,0-.23-.12,.03-.23,0-.32-.09l.05-.23,.09,.05-.05-.19,.32-.09c-.09-.09-.08-.19,.05-.28-.09-.09-.2-.18-.32-.28-.12-.09-.12-.22,0-.37-.09-.06-.17-.14-.23-.23,.43-.12,.85-.22,1.25-.28v.05c.06-.46,.06-1,0-1.62l-.09-.65c.18-.46,.26-1.09,.23-1.87-.03-.79,.09-1.61,.37-2.47-.03,.22,.02,.13,.16-.25,.14-.39,.25-.65,.35-.81-.09,.03-.12-.03-.09-.19,.03-.15,.05-.31,.07-.46,.01-.15,.02-.25,.02-.28s-.06,.09-.18,.37c.4-.92,.7-1.74,.9-2.45,.2-.71,.64-1.45,1.32-2.22,.09-.25,.18-.51,.28-.79,.46-.58,.91-1.03,1.34-1.34l-.23,.6c.52-.62,.87-.93,1.04-.95,.17-.02,.64-.33,1.41-.95-.46,.28-.62,.29-.49,.02,.14-.26,.53-.61,1.18-1.04,.4-.37,1-.69,1.8-.95,.8-.26,1.62-.39,2.45-.39s1.52,.02,2.15,.07c.63,.05,1.09,0,1.36-.16,.09,.03,.18,.06,.28,.09l.46,.09,.14,.23c.03,.06,.06,.12,.09,.19,.28,.06,.49,.15,.65,.28,.15,.12,.28,.22,.37,.28,.06,.06,.23,.15,.51,.28,.55,.28,1.06,.6,1.53,.97,.96,.77,1.77,1.73,2.45,2.87,.34,.83,.68,1.54,1.02,2.13,.34,.59,.65,1.16,.92,1.71,.28,.62,.48,1.24,.6,1.87,.12,.63,.23,1.36,.32,2.2,.06,.19,.12,.37,.18,.55l.32-.46,.05,1.99Zm-25.2,3.79c-.06,.09-.06,.14,0,.14v-.14Zm.42,2.87s-.06-.05-.09-.05c.03,0,.06,.02,.09,.05Zm17.15-5.73c-.15-.34-.29-.79-.42-1.36-.12-.57-.16-1.13-.09-1.69,.03-.89-.22-1.8-.74-2.73-.37-.46-.6-.75-.69-.88-.09-.12-.22-.31-.37-.55l.05-.09c-.28-.28-.66-.57-1.16-.88-.4-.19-.66-.32-.79-.42-.12-.03-.25-.05-.37-.05-.71,.09-1.42,.34-2.13,.74-.71,.4-1.25,.91-1.62,1.53-.25,.19-.29,.17-.14-.05,.15-.22,.28-.4,.37-.55-.43,.37-.8,.8-1.11,1.29-.09,.12-.19,.26-.28,.42-.28,.83-.54,1.59-.79,2.27-.12,.12-.23,.32-.32,.58-.09,.26-.14,.49-.14,.67l.14,.09c-.03,.06-.05,.12-.05,.19-.03,.06-.06,.12-.09,.18h0c-.06,.12-.11,.28-.14,.46,.09,.06,.09,.12,0,.19,.09,.06,.11,.12,.05,.16-.06,.05-.11,.07-.14,.07v.18c.09,.03,.09,.06,0,.09v.05h.23c0,.12-.03,.19-.09,.21-.06,.02,0,.05,.18,.12l.09,.05-.32,.14c.09,.06,.22,.1,.37,.12,.15,.02,.2,.07,.14,.16,.03,.09,.05,.17,.05,.23l-.14,.05-.09-.05s-.09,.07-.16,.12c-.08,.05-.07,.09,.02,.12,.34,.06,.51,.15,.51,.28l-.88-.05c.06,.34,.09,.72,.09,1.16-.06-.09-.1-.03-.12,.19-.02,.22-.04,.37-.07,.46,.09-.03,.15,.08,.19,.35,.03,.26,.09,.21,.18-.16-.06,.55,0,.99,.21,1.29,.2,.31,.33,.69,.39,1.16,.12,.09,.26,.17,.42,.23,.15,.31,.26,.59,.32,.83l-.37-.09c.28,.28,.41,.48,.39,.6-.02,.12,.16,.35,.53,.69-.18-.22-.18-.32,.02-.3,.2,.02,.44,.1,.72,.25,.25,.06,.51,.16,.79,.3s.58,.24,.92,.3c.31,.09,.61,.1,.9,.02,.29-.08,.45-.22,.49-.44,.52-.09,.96-.35,1.29-.76,.34-.42,.69-.92,1.06-1.5,.43-.65,.62-1.26,.58-1.83-.05-.57,.1-1.23,.44-1.97-.06-.31-.09-.65-.09-1.02l.18-.14v-.14c.18,0,.38-.12,.6-.37,.18-.18,.37-.29,.55-.32l-.05,.09c.06,.03,.08,.15,.07,.35-.02,.2-.02,.36-.02,.49-.06,.28-.09,.48-.09,.6-.03-.03-.06,0-.09,.07-.03,.08-.05,.15-.05,.21-.03,.31-.02,.49,.02,.55,.05,.06,0,.28-.12,.65,0,.09,0,.18,.02,.25,.02,.08,.07,.02,.16-.16v.23c.09-.34,.17-.66,.23-.97,.03-.03,.05-.06,.05-.09,.06-.43,.12-.86,.18-1.29,.06-.12,.08-.26,.05-.42-.03-.19-.02-.34,.05-.46v-.28Zm-.79,4.48v-.14c-.12,.09-.19,.25-.21,.49-.02,.23-.12,.47-.3,.72-.06,.22-.14,.43-.23,.65,.28-.49,.52-1.06,.74-1.71Zm4.95-13.08c-.18-.46-.39-.86-.6-1.2,.46,.89,.86,1.8,1.2,2.73,.09,.25,.17,.48,.23,.69,.03-.15-.02-.39-.14-.69-.22-.37-.45-.88-.69-1.53Zm1.34,3.84c-.06-.15-.08-.05-.05,.32l-.09-.32c.19,.99,.34,1.97,.46,2.96v.32s.01,.06,.05,.09h.05l.09-.05-.05,.05h.09q.06,0,0,0h.14v-.05l-.14,.05,.14-.05c-.06,.06-.11,.08-.14,.05v-.05h.14s-.02-.06-.05-.09c.03,.12,.05,.09,.07-.09,.02-.19,.02-.35,.02-.51-.12-.55-.23-.88-.32-.97-.09-.09-.17-.52-.23-1.29-.06-.09-.12-.22-.19-.37Z"/><path class="cls-1" d="M2.18,75.83c.28,.63,.53,1.11,.77,1.43-.14-.14-.14-.02,0,.35,.14,.37,.3,.7,.49,.98,.42,.61,.74,1.01,.98,1.22,.23,.21,.46,.41,.7,.59,.19,.19,.42,.43,.7,.73,.28,.3,.77,.78,1.47,1.43,.19,.14,.46,.31,.84,.52,.37,.21,.21,.01-.49-.59,.46,.28,.93,.56,1.4,.84-.14-.09-.28-.21-.42-.35-1.02-.65-1.91-1.42-2.65-2.3-.28-.28-.51-.56-.7-.84v.07c-.28-.33-.51-.65-.7-.98-.14-.23-.28-.44-.42-.63-.28-.42-.54-.84-.77-1.26,.05,.09,.09,.16,.14,.21-1.07-1.82-1.82-3.88-2.23-6.21-.05-.37-.09-.72-.14-1.05-.42-1.26-.72-2.93-.91-5.03-.09-1.35-.06-2.77,.1-4.26,.16-1.49,.48-2.93,.94-4.33,.51-1.21,1.09-2.4,1.75-3.56v-.21c.51-1.02,1.02-2.12,1.54-3.28-.09,0-.16-.09-.21-.28l-.21-.07c.19-.37,.37-.72,.56-1.05l-.35-.63c.23,.09,.44,.16,.63,.21,.46-.79,.98-1.54,1.54-2.23,1.12-1.49,2.16-2.56,3.14-3.21,.88-.74,1.89-1.35,3-1.81l.21,.07c.56-.28,1.45-.62,2.69-1.01,1.23-.39,2.48-.48,3.73-.24,.98,.14,1.79,.43,2.44,.87,.65,.44,1.05,.73,1.19,.87h.07c.28,.19,.53,.37,.77,.56,.23,.14,.49,.33,.77,.56,.05,.05,.09,.07,.14,.07,.98,.84,1.83,1.93,2.55,3.28,.72,1.35,1.24,2.72,1.57,4.12,.51,3.82,.53,7.49,.07,11.03-.28,.79-.4,1.02-.35,.7,.05-.33,.12-.81,.21-1.47,.05-.51,.07-1.28,.07-2.3-.05,.84-.14,1.68-.28,2.51-.42,2.14-1.14,3.98-2.16,5.51l-.56,.56c-.09,.05-.16,.12-.21,.21-.05,.09-.12,.16-.21,.21-.09,.09-.19,.19-.28,.28-.93,.51-1.91,.67-2.93,.49v-.21l-.07,.21h-.35l-.7-.14-.07-.07h-.07c-1.02-.28-1.84-.84-2.44-1.68l-.14,.35-.42-.63c-.09-.23-.16-.44-.21-.63l-1.54,.42c.09-.51,.21-1,.35-1.47l2.16-5.3c.28-.51,.37-1.09,.28-1.75-.09-.09-.12-.23-.07-.42-.05-.23-.07-.39-.07-.49-.14-.18-.27-.37-.38-.56-.12-.19-.1-.42,.03-.7-.14-.14-.28-.3-.42-.49,.14-.09,.26-.16,.35-.21-.09-.14-.12-.28-.07-.42,.09-.28,.07-.46-.07-.56-.14-.09-.19-.28-.14-.56l-.42-.21h.14c-.14-.28-.28-.48-.42-.59-.14-.12-.21-.31-.21-.59l-.28-.07c-.09-.19-.14-.3-.14-.35,0,.05,0,.02,0-.07,.14-.14,.23-.25,.28-.35v-.07l-.07-.42c-.61,.19-1.21,.56-1.81,1.12-.61,.56-1.11,1.27-1.5,2.13-.4,.86-.78,1.76-1.15,2.69,.09-.46-.03-.26-.38,.63-.35,.88-.55,1.49-.59,1.81,.05-.04,.05,.13,0,.52-.05,.4-.07,.78-.07,1.15s.01,.58,.03,.63c.02,.05,.15-.32,.38-1.12-.28,1.16-.47,2.21-.56,3.14v2.79c-.05,.88-.01,1.76,.1,2.62,.12,.86,.27,1.83,.45,2.9,.23,.51,.53,1,.91,1.47,.51,1.4,1.07,2.54,1.68,3.42-.33-.19-.65-.42-.98-.7,.56,.7,.98,1.18,1.26,1.43,.28,.26,.56,.48,.84,.66,.28,.14,.65,.33,1.12,.56,.46,.23,1.19,.14,2.16-.28-.56,.19-.9,.26-1.01,.21-.12-.05-.06-.14,.17-.28,.42-.19,1.21-.79,2.37-1.82,.23-.19,.42-.42,.56-.7l-.14-.14h.07c.14,.09,.15,.09,.03,0-.12-.09-.1-.14,.04-.14l-.21-.21,.14,.07s-.04-.1-.1-.17c-.07-.07-.03-.11,.1-.11l-.21-.14c.05-.09,.16-.12,.35-.07-.14-.09-.19-.13-.14-.1,.05,.02,.05-.01,0-.1,.14,.09,.23,.12,.28,.07-.09-.05-.16-.09-.21-.14h.07l.21,.21s.07-.02,.07-.07c-.14-.09-.26-.19-.35-.28h.07l.14,.07v-.07l.42,.21c-.09-.09-.12-.12-.07-.07-.23-.19-.26-.25-.07-.21-.09-.09-.19-.16-.28-.21,.14,.05,.28,.09,.42,.14,.05,.05,.09,.07,.14,.07,.14-.23,.28-.51,.42-.84,.37-.65,.77-1.35,1.19-2.09,.51-.74,1.19-1.42,2.02-2.02,1.02-.56,1.98-.74,2.86-.56,.42,.05,.81,.12,1.19,.21,.46,.14,.86,.3,1.19,.49,.98,.61,1.72,1.26,2.23,1.96l.84-.07,.14,1.05s.05,.09,0,.14l-1.12,.77c-.05,.56,.09,.95,.42,1.19l.7-1.81c.19,.42,.35,.72,.49,.91,.19,1.02,.19,2.05,0,3.07-.19,.93-.49,1.75-.91,2.44-.75,1.49-1.63,2.82-2.65,3.98-.98,1.21-2.21,2.26-3.7,3.14-1.4,.88-3,1.58-4.82,2.09-2.28,.51-4.36,.69-6.25,.52-1.88-.16-3.5-.36-4.85-.59l.28-2.02-.56,1.88v.07l-.21-.07v-2.3s-.09-.07-.14-.07c-.19-.09-.35-.21-.49-.35l-.7,1.75,1.05-1.05v-.07l-.84,1.67c-1.16-.46-2.28-1.14-3.35-2.02-.56-.42-1.07-.91-1.54-1.47-.42-.51-.86-1.09-1.33-1.75-1.12-1.12-2.12-2.56-3-4.33-.28-1.35-.36-2.5-.24-3.46,.12-.95,.31-1.59,.59-1.92,0,.09,.02,.19,.07,.28,.09,0,.2,.26,.31,.77,.12,.51,.29,1.07,.52,1.68,.14,.65,.35,1.29,.63,1.92Zm18.78,9.46c-1.63,.37-3.28,.44-4.96,.21h-.07c-.33,.05-.63,.02-.91-.07-.93-.14-1.86-.35-2.79-.63-.23-.05-.47-.09-.7-.14,.37,.23,1.02,.4,1.95,.49,.51,.09,1.07,.21,1.68,.35,.6,.05,1.26,.12,1.95,.21,1.4,.09,2.68-.05,3.84-.42Z"/><path class="cls-1" d="M54.47,70.42c-.19-.7-.35-1.47-.49-2.3,.56-1.21,1.14-2.02,1.75-2.44v.14c.14,.05,.21,.45,.21,1.22s.05,1.36,.14,1.78c.19,.14,.23,.21,.14,.21h.21s.07-.09,.07-.14l.07,.07c-.05-.93-.12-2.05-.21-3.35,0-.28-.02-.53-.07-.77-.23-.74-.44-1.73-.63-2.97-.19-1.23-.16-2.45,.07-3.67,.19-.98,.29-2.01,.31-3.11,.02-1.09,.06-2.22,.1-3.39,0-.98,.05-1.75,.14-2.3,.09-.56,.23-1.14,.42-1.75h.21c.09-.42,.19-.91,.28-1.47,.05-.56,.19-1.16,.42-1.81,.51-1.02,.95-1.54,1.33-1.54l.14-.14c.14-.19,.3-.37,.49-.56,.42-.56,1-1.01,1.75-1.36,.74-.35,1.54-.48,2.37-.38,.93,.14,1.85,.44,2.76,.91,.91,.47,1.64,1.07,2.2,1.81,.14,.42,.14,.56,0,.42-.14-.14-.3-.35-.49-.63-.23-.23-.45-.43-.66-.59-.21-.16-.27-.2-.17-.1,.6,.56,1.05,1.21,1.33,1.95,.19,.79,.19,1.56,0,2.3-.09,.75-.19,1.49-.28,2.23-.09,1.21-.21,2.33-.35,3.35-.14,.33-.26,.8-.35,1.43-.09,.63-.12,1.13-.07,1.5l.21,.21c-.14,.6-.27,1.18-.38,1.71-.12,.54-.1,1.13,.03,1.78l.14,.77c-.28,.61-.37,1.36-.28,2.27,.09,.91,.09,1.87,0,2.9-.05-.23-.12-.09-.21,.42-.09,.51-.16,.84-.21,.98,.14-.05,.22,.24,.24,.87,.02,.63,.13,.52,.31-.31-.19,1.26-.22,2.29-.1,3.11,.12,.81,.1,1.76-.03,2.83l.49,.91c.09,.75,.09,1.42,0,2.02l-.49-.56c.23,.84,.3,1.35,.21,1.54-.09,.19-.02,.7,.21,1.54l.14-.07v.07c.14-.28,.3-.23,.49,.14,.05,.09,.09,.19,.14,.28,.33-.14,.46-.14,.42,0,.14,.05,.19,.08,.14,.1-.05,.02-.02,.04,.07,.04l-.14,.14-.14,.07s-.07,.09-.07,.14,.02,.09,.07,.14c.32-.09,.56-.14,.7-.14l.84,.07-1.33,1.12c.19,.33,.34,.73,.45,1.22,.12,.49,.1,.99-.04,1.5-.47,1.02-1.07,1.72-1.81,2.09l-.42,.21h-.28s-.09-.07-.14-.07c-.19,.14-.4,.28-.63,.42-.23,.09-.51,.23-.84,.42-.51,.28-.98,.58-1.4,.91-.42,.05-.79,0-1.12-.14-.28-.09-.56-.19-.84-.28-.28-.14-.56-.26-.84-.35-.14,0-.21-.01-.21-.03s-.02-.06-.07-.11l-.28-.07c-1.21-.51-2.23-1.26-3.07-2.23-.23-.23-.44-.49-.63-.77-.28-.42-.47-.79-.56-1.12-.19-.56-.37-1.14-.56-1.75-.28-.84-.55-1.69-.8-2.55-.26-.86-.41-1.71-.45-2.55-.09-.37-.12-.84-.07-1.4,.05-.37,.12-.74,.21-1.12,0-.19,.02-.4,.07-.63,0,.09,0,.07,0-.07v-.14l-.28-1.05Zm1.75-.35c-.09,0-.19-.02-.28-.07,0,.05,.02,.09,.07,.14h.42l-.21-.07Zm-.1,.24c-.12-.02-.08-.06,.1-.1h-.21v.14l.14,.42,.21,.07h.28v-.56l-.07-.07-.21,.14s-.13-.01-.24-.04Zm1.08,8.62c-.09-.33-.19-.67-.28-1.05-.37-1.16-.49-2.35-.35-3.56-.19,.23-.23,.59-.14,1.08,.09,.49,.16,1.08,.21,1.78,.09,.7,.28,1.28,.56,1.75Zm-.56-7.26l.42-.28v-.14l-.42,.28v.14Zm.03,.66c.02,.21,.1,.11,.24-.31l-.07,.63c.05-.23,.09-.46,.14-.7l.07-.56-.42,.28v.21c0,.09,.01,.24,.03,.45Zm10.79,11.97c-.05,.09-.12,.19-.21,.28v-.07l.21-.21Z"/><path class="cls-1" d="M92.02,75.83c.28,.63,.53,1.11,.77,1.43-.14-.14-.14-.02,0,.35,.14,.37,.3,.7,.49,.98,.42,.61,.74,1.01,.98,1.22,.23,.21,.46,.41,.7,.59,.19,.19,.42,.43,.7,.73,.28,.3,.77,.78,1.47,1.43,.19,.14,.46,.31,.84,.52,.37,.21,.21,.01-.49-.59,.46,.28,.93,.56,1.4,.84-.14-.09-.28-.21-.42-.35-1.02-.65-1.91-1.42-2.65-2.3-.28-.28-.51-.56-.7-.84v.07c-.28-.33-.51-.65-.7-.98-.14-.23-.28-.44-.42-.63-.28-.42-.54-.84-.77-1.26,.05,.09,.09,.16,.14,.21-1.07-1.82-1.82-3.88-2.23-6.21-.05-.37-.09-.72-.14-1.05-.42-1.26-.72-2.93-.91-5.03-.09-1.35-.06-2.77,.1-4.26,.16-1.49,.48-2.93,.94-4.33,.51-1.21,1.09-2.4,1.75-3.56v-.21c.51-1.02,1.02-2.12,1.54-3.28-.09,0-.16-.09-.21-.28l-.21-.07c.19-.37,.37-.72,.56-1.05l-.35-.63c.23,.09,.44,.16,.63,.21,.46-.79,.98-1.54,1.54-2.23,1.12-1.49,2.16-2.56,3.14-3.21,.88-.74,1.89-1.35,3-1.81l.21,.07c.56-.28,1.45-.62,2.69-1.01,1.23-.39,2.48-.48,3.73-.24,.98,.14,1.79,.43,2.44,.87,.65,.44,1.05,.73,1.19,.87h.07c.28,.19,.53,.37,.77,.56,.23,.14,.49,.33,.77,.56,.05,.05,.09,.07,.14,.07,.98,.84,1.83,1.93,2.55,3.28,.72,1.35,1.24,2.72,1.57,4.12,.51,3.82,.53,7.49,.07,11.03-.28,.79-.4,1.02-.35,.7,.05-.33,.12-.81,.21-1.47,.05-.51,.07-1.28,.07-2.3-.05,.84-.14,1.68-.28,2.51-.42,2.14-1.14,3.98-2.16,5.51l-.56,.56c-.09,.05-.16,.12-.21,.21-.05,.09-.12,.16-.21,.21-.09,.09-.19,.19-.28,.28-.93,.51-1.91,.67-2.93,.49v-.21l-.07,.21h-.35l-.7-.14-.07-.07h-.07c-1.02-.28-1.84-.84-2.44-1.68l-.14,.35-.42-.63c-.09-.23-.16-.44-.21-.63l-1.54,.42c.09-.51,.21-1,.35-1.47l2.16-5.3c.28-.51,.37-1.09,.28-1.75-.09-.09-.12-.23-.07-.42-.05-.23-.07-.39-.07-.49-.14-.18-.27-.37-.38-.56-.12-.19-.1-.42,.03-.7-.14-.14-.28-.3-.42-.49,.14-.09,.26-.16,.35-.21-.09-.14-.12-.28-.07-.42,.09-.28,.07-.46-.07-.56-.14-.09-.19-.28-.14-.56l-.42-.21h.14c-.14-.28-.28-.48-.42-.59-.14-.12-.21-.31-.21-.59l-.28-.07c-.09-.19-.14-.3-.14-.35,0,.05,0,.02,0-.07,.14-.14,.23-.25,.28-.35v-.07l-.07-.42c-.61,.19-1.21,.56-1.81,1.12-.61,.56-1.11,1.27-1.5,2.13-.4,.86-.78,1.76-1.15,2.69,.09-.46-.03-.26-.38,.63-.35,.88-.55,1.49-.59,1.81,.05-.04,.05,.13,0,.52-.05,.4-.07,.78-.07,1.15s.01,.58,.03,.63c.02,.05,.15-.32,.38-1.12-.28,1.16-.47,2.21-.56,3.14v2.79c-.05,.88-.01,1.76,.1,2.62,.12,.86,.27,1.83,.45,2.9,.23,.51,.53,1,.91,1.47,.51,1.4,1.07,2.54,1.68,3.42-.33-.19-.65-.42-.98-.7,.56,.7,.98,1.18,1.26,1.43,.28,.26,.56,.48,.84,.66,.28,.14,.65,.33,1.12,.56,.46,.23,1.19,.14,2.16-.28-.56,.19-.9,.26-1.01,.21-.12-.05-.06-.14,.17-.28,.42-.19,1.21-.79,2.37-1.82,.23-.19,.42-.42,.56-.7l-.14-.14h.07c.14,.09,.15,.09,.03,0-.12-.09-.1-.14,.04-.14l-.21-.21,.14,.07s-.04-.1-.1-.17c-.07-.07-.03-.11,.1-.11l-.21-.14c.05-.09,.16-.12,.35-.07-.14-.09-.19-.13-.14-.1,.05,.02,.05-.01,0-.1,.14,.09,.23,.12,.28,.07-.09-.05-.16-.09-.21-.14h.07l.21,.21s.07-.02,.07-.07c-.14-.09-.26-.19-.35-.28h.07l.14,.07v-.07l.42,.21c-.09-.09-.12-.12-.07-.07-.23-.19-.26-.25-.07-.21-.09-.09-.19-.16-.28-.21,.14,.05,.28,.09,.42,.14,.05,.05,.09,.07,.14,.07,.14-.23,.28-.51,.42-.84,.37-.65,.77-1.35,1.19-2.09,.51-.74,1.19-1.42,2.02-2.02,1.02-.56,1.98-.74,2.86-.56,.42,.05,.81,.12,1.19,.21,.46,.14,.86,.3,1.19,.49,.98,.61,1.72,1.26,2.23,1.96l.84-.07,.14,1.05s.04,.09,0,.14l-1.12,.77c-.05,.56,.09,.95,.42,1.19l.7-1.81c.19,.42,.35,.72,.49,.91,.19,1.02,.19,2.05,0,3.07-.19,.93-.49,1.75-.91,2.44-.74,1.49-1.63,2.82-2.65,3.98-.98,1.21-2.21,2.26-3.7,3.14-1.4,.88-3,1.58-4.82,2.09-2.28,.51-4.36,.69-6.25,.52-1.88-.16-3.5-.36-4.85-.59l.28-2.02-.56,1.88v.07l-.21-.07v-2.3s-.09-.07-.14-.07c-.19-.09-.35-.21-.49-.35l-.7,1.75,1.05-1.05v-.07l-.84,1.67c-1.16-.46-2.28-1.14-3.35-2.02-.56-.42-1.07-.91-1.54-1.47-.42-.51-.86-1.09-1.33-1.75-1.12-1.12-2.12-2.56-3-4.33-.28-1.35-.36-2.5-.24-3.46,.12-.95,.31-1.59,.59-1.92,0,.09,.02,.19,.07,.28,.09,0,.2,.26,.31,.77,.12,.51,.29,1.07,.52,1.68,.14,.65,.35,1.29,.63,1.92Zm18.78,9.46c-1.63,.37-3.28,.44-4.96,.21h-.07c-.33,.05-.63,.02-.91-.07-.93-.14-1.86-.35-2.79-.63-.23-.05-.47-.09-.7-.14,.37,.23,1.02,.4,1.95,.49,.51,.09,1.07,.21,1.68,.35,.6,.05,1.26,.12,1.95,.21,1.4,.09,2.68-.05,3.84-.42Z"/><path class="cls-1" d="M144.03,69.58c.09-.6,.28-1.14,.56-1.61,.14-.23,.34-.49,.59-.77,.25-.28,.45-.49,.59-.63,.23-.28,.35-.6,.35-.98v-1.4c0,.56,.04,.31,.1-.73,.07-1.05,.13-1.78,.17-2.2-.09,.14-.17-.01-.24-.45-.07-.44-.12-.86-.14-1.26-.02-.39-.06-.62-.1-.66-.05-.05-.07,.35-.07,1.19,0-1.35-.04-2.55-.1-3.59-.07-1.05-.1-2.08-.1-3.11v-3.14c.14-1.02,.35-2.14,.63-3.35-.05-.7-.05-1.42,0-2.16,.19-.93,.53-1.74,1.05-2.44,.19-.37,.46-.7,.84-.98,.28-.28,.56-.53,.84-.77l-.07,.07,.28-.21-.21,.28h.07l-.63,1.05c.33-.37,.58-.65,.77-.84,.65-.56,1.21-.88,1.68-.98h-.07c.33-.09,.58-.14,.77-.14h.28c.42,0,.95,.02,1.61,.07,.65,.05,1.54,.37,2.65,.98-1.21-.74-1.47-1.02-.77-.84,.28,.09,.77,.3,1.47,.63,.7,.33,1.35,.98,1.95,1.95,.37,.47,.65,1.02,.84,1.68,.05,.28,.12,.61,.21,.98,.09,.56,.05,1.09-.14,1.61l.07-.28c-.09,.42-.19,.84-.28,1.26-.05,.05-.05,.28,0,.7,.05,.79,.02,1.63-.07,2.51-.09,1.72-.3,3.37-.63,4.96-.42,1.54-.72,2.84-.91,3.91-.09,.56-.16,1.02-.21,1.4,0,.19,.07,.33,.21,.42-.09,.47,.05,.72,.42,.77h.49c.37-.05,.74-.09,1.12-.14,.84-.05,1.69-.16,2.55-.35,.86-.19,1.71-.33,2.55-.42,.19,0,.35-.05,.49-.14,0-.18,.05-.39,.14-.63-.09-1.07-.14-1.81-.14-2.23-.09-.98-.19-1.98-.28-3,0-1.54-.02-2.96-.07-4.26-.05-1.3,0-2.58,.14-3.84,.09-1.12,.31-2.29,.66-3.53,.35-1.23,1.01-2.41,1.99-3.52,.18-.32,.42-.67,.7-1.05,.37-.37,.77-.72,1.19-1.05-.05-.05,.07-.14,.35-.28l.28-.35c.37-.37,.81-.7,1.33-.98,.23-.14,.48-.24,.73-.31,.25-.07,.43-.1,.52-.1,.14,0,.25-.01,.35-.04,.09-.02,.3-.08,.63-.17,.56-.19,1.26-.24,2.09-.17s1.58,.31,2.23,.73c.7,.47,1.21,.98,1.54,1.54,.33,.56,.63,1.07,.91,1.54,.09,.7,.15,1.29,.17,1.78,.02,.49,.01,1.06-.04,1.71-.05,.23-.09,.37-.14,.42v-.21c-.05-.09-.09-.09-.14,0,0,.28-.05,.58-.14,.91-.19,.61-.37,.96-.56,1.05,0-.09,.02-.21,.07-.35-.05-.09-.12-.35-.21-.77-.05-.19-.09-.4-.14-.63,0-.09-.02-.09-.07,0v-.35c-.09-.84-.29-1.68-.59-2.51-.3-.84-.66-1.49-1.08-1.95,.14,.14,.16,.12,.07-.07-.09-.19-.28-.39-.56-.63-.28-.19-.56-.35-.84-.49-.84-.23-1.48-.26-1.92-.07-.44,.19-.76,.3-.94,.35-.23,.14-.56,.28-.98,.42-.23,.14-.49,.3-.77,.49-.09,.09-.19,.21-.28,.35l.21,.28h.07c.28-.37,.65-.65,1.12-.84,.37-.09,.7-.19,.98-.28h.07l-.07-.07c.37-.09,.72-.14,1.05-.14,.7-.09,1.35,.09,1.96,.56,.05,0,.07,.02,.07,.07,.14,.09,.28,.21,.42,.35-.09-.05-.16-.09-.21-.14,.56,.56,1.05,1.51,1.47,2.86,.09,.05,.16,.05,.21,0-.05,.05-.12,.05-.21,0,.14,.42,.25,.84,.35,1.26,.05,.14,.02,.37-.07,.7l.07-.21c.23,.65,.3,1.19,.21,1.61v.21c.05,.56-.02,1.05-.21,1.47v.56c-.05,.33-.07,.68-.07,1.05l.7,.42h-.07c-.19,0-.21,.05-.07,.14,.14,.09,.14,.14,0,.14l.21,.21-.07-.07c0,.09,.03,.19,.1,.28,.07,.09,.04,.14-.1,.14l.21,.14c-.05,.09-.16,.19-.35,.28,.14,.09,.17,.15,.1,.17-.07,.02-.06,.06,.04,.1-.19,0-.28,.02-.28,.07,.09,.09,.16,.14,.21,.14h-.07l-.28-.14c-.09-.05-.12-.02-.07,.07,.14,.09,.28,.19,.42,.28l-.07,.07-.21-.07v.07l-.35-.07c.19,.09,.21,.16,.07,.21,.14,.05,.26,.09,.35,.14h-.84c.14,.05,.28,.07,.42,.07l-.07,.14c-.14-.05-.26-.09-.35-.14-.23,.84-.44,1.68-.63,2.51-.28,1.21-.56,2.4-.84,3.56-.05,1.26-.14,2.51-.28,3.77-.09,.33-.14,.65-.14,.98-.05,.84,.37,1.58,1.26,2.23,.32,.47,.51,.96,.56,1.47,.05,.47,0,1-.14,1.61h.07c-.19,1.12-.4,2.28-.63,3.49-.05,.33-.19,.6-.42,.84-.05-.05-.07-.12-.07-.21l-.14,.07c0-.14-.05-.21-.14-.21-.09-.09-.23-.19-.42-.28,0,.28,.02,.58,.07,.91l1.88-.21c-.09,.09-.14,.19-.14,.28,.14,.05,.25,.05,.35,0l-.07,.14-.35-.07s-.02,.12,.07,.21c.19,0,.35,.02,.49,.07l-.07,.21h-.14l.07,.14-.42,.14c.14,.09,.12,.2-.07,.31-.19,.12-.19,.2,0,.24l-.49-.07c-.05,.09-.05,.19,0,.28,.14,.05,.23,0,.28-.14l-.07,.21c.23,.05,.44,0,.63-.14l.07,.28c-.19,0-.37,.02-.56,.07l-.14-.07-.21,.14c-.42-.05-.56-.16-.42-.35-.14,.05-.26,.12-.35,.21,.05,.14,.09,.28,.14,.42,0,.14,.02,.28,.07,.42v.07c.05,.14,.07,.26,.07,.35l.28,.07c-.09,.05-.16,.07-.21,.07,.05,.09,.07,.16,.07,.21,.05,.05,.09,.02,.14-.07-.09,.05-.12,.09-.07,.14h0c0,.09,.07,.16,.21,.21,.14,.05,.14,.12,0,.21h.42c.05,.09,0,.16-.14,.21l-.42,.07c.09,.05,.12,.09,.07,.14v.07s0-.02,0,.07c.23-.09,.42-.09,.56,0,.23,0,.34,.07,.31,.21s-.04,.26-.04,.35l-.7,.14v.14l.07,.07h-.07c.04,.33,.02,.49-.07,.49l.14,.21c0,.23,.02,.49,.07,.77l-.21,.21c0,.28-.02,.6-.07,.98v.07c-.05,.09-.07,.19-.07,.28l.07-.07s0,.05-.14,.28v.14s-.07,.09-.07,.14,.02,.02,.07-.07l.21-.35c.09-.19,.12-.2,.07-.04-.05,.16-.09,.29-.14,.38-.14,.28-.26,.58-.35,.91-.28,.42-.54,.86-.77,1.33l-.21,.28s-.05-.14,0-.28l.28-.49c.09-.14,.09-.19,0-.14l-.07,.14c-.33,.51-.44,.67-.35,.49,0-.09,.02-.16,.07-.21l-.28,.28c-.14,.28-.4,.51-.77,.7-.61,.42-1.12,.63-1.54,.63s-.63-.05-.63-.14c-.51,0-1.05-.19-1.61-.56-.14,0-.26-.02-.35-.07-.09-.05-.19-.12-.28-.21-1.16-.6-2-1.56-2.51-2.86-.23-.79-.44-1.56-.63-2.3-.09-.84-.16-1.65-.21-2.44-.05-.84-.14-1.63-.28-2.37-.14-.42-.42-.65-.84-.7-.37,0-.74,.05-1.12,.14-.79,.14-1.57,.33-2.34,.56-.77,.23-1.57,.42-2.41,.56h.07c-.88,.19-1.79,.37-2.72,.56-.56,.05-.83,.06-.8,.03,.02-.02,.24-.1,.66-.24,.42-.09,.9-.2,1.43-.31,.53-.12,1.01-.22,1.43-.31h-.07c.09-.05,.19-.07,.28-.07-.09,0-.19,.02-.28,.07-.98,.19-1.96,.35-2.93,.49-1.02,.19-1.61,.42-1.75,.7-.09,.09-.12,.16-.07,.21v.63c.05,.37,.07,.72,.07,1.05l2.16-.21c-.14,0-.28,.05-.42,.14l-1.68,.49v0l.14,.35h-.14v.07l.07-.07c.04,.09,.09,.16,.14,.21l2.02-.56c.04,.61,.09,1.26,.14,1.95l-1.4,.35c.19,.37,.3,.84,.35,1.4l-.14,.98c-.05,.61-.23,1.14-.56,1.61-.37,.7-.88,1.3-1.54,1.82-.65,.51-1.33,.81-2.02,.91-.7,.09-1.47,.05-2.3-.14-.42-.05-.86-.15-1.33-.31-.47-.16-.84-.45-1.12-.87-.42-.51-.7-1-.84-1.47l-.28-.28c-.09-.46-.19-.84-.28-1.12-.14-.19-.21-.39-.21-.63v-.63c0-.33-.01-.71-.04-1.15-.02-.44-.04-.8-.04-1.08l-.07-.07c-.14-.46-.19-.97-.14-1.5,.05-.54,0-1.01-.14-1.43-.19-.42-.51-.72-.98-.91-.42-.37-.75-.88-.98-1.54-.56-.93-.65-2.12-.28-3.56Zm11.73,7.68h.07s-.07-.12-.07-.21v.91h.14l-.07-.28h.14v-.07l-.14,.07-.07-.35v-.07Zm.91-25.13v0Zm10.19-2.44l-.07-.07c0,.19-.02,.42-.07,.7-.05,1.16-.02,2.23,.07,3.21h.07c-.05-1.02-.07-2.05-.07-3.07,0-.23,.02-.49,.07-.77Zm.07-.7l-.07-.07c-.05,.14-.07,.26-.07,.35l.14-.07v-.21Zm-.07,4.61v0Zm1.26-9.49c-.37,.23-.65,.86-.84,1.88h.14c.05-.14,.07-.26,.07-.35,.19-.56,.39-1.07,.63-1.54Zm3.56-4.4l-.28-.28-.07,.07s-.02,.06-.07,.03c-.05-.02,0,.01,.14,.1-.05-.05-.09-.09-.14-.14-.14,.09-.26,.19-.35,.28l-.07,.07c-.28,.28-.54,.56-.77,.84-.23,.28,.04,.12,.84-.49-.23,.19-.44,.37-.63,.56l-.35,.56c.14-.19,.28-.37,.42-.56,.23-.28,.49-.49,.77-.63,.05-.05,.09-.07,.14-.07-.09-.09-.12-.21-.07-.35v-.14h.07l.21,.21v.07h.07l-.07-.07c0-.09,0-.12,0-.07l-.07-.07,.07,.07h.07v.07h.07c-.05,.09-.02,.07,.07-.07Zm5.51,31.69c-.05-.14-.07-.32-.07-.56,0-.19-.02-.37-.07-.56-.23,.09-.37,.23-.42,.42,.05,.05,.07,.12,.07,.21l.49,.49Z"/><path class="cls-1" d="M200.68,81.86c.3-.98,.66-1.54,1.08-1.68-.05,.09-.09,.19-.14,.28,.05,.09,.09,.55,.14,1.36,.05,.81,.35,1.55,.91,2.2,.18,.56,.44,1.05,.77,1.47-.19-.14-.15-.04,.1,.31,.25,.35,.55,.57,.87,.66,.56,.28,.96,.43,1.22,.45,.25,.02,.52,.04,.8,.04,.23,0,.52,.04,.87,.1,.35,.07,.94-.03,1.78-.31,.19-.14,.38-.35,.59-.63,.21-.28,.01-.21-.59,.21,.37-.23,.65-.49,.84-.77-.56,.65-1.28,1.02-2.16,1.12-.42,.05-.91-.02-1.47-.21v.07c-.19-.09-.4-.19-.63-.28-.23-.09-.47-.19-.7-.28l-.07-.07c-.28-.14-.54-.26-.77-.35-.05-.09-.09-.18-.14-.28-.05,0-.09-.02-.14-.07,.05,.05,.09,.07,.14,.07-.42-.42-.72-.91-.91-1.47-.46-.6-.74-1.28-.84-2.02-.09-.56-.07-1.05,.07-1.47v-.77c-.14-.65-.21-1.42-.21-2.3l-.98-.14c0-.09,.02-.21,.07-.35,.23-.42,.31-.76,.25-1.01-.07-.25-.01-.59,.17-1.01l-.21-.63,.07,.07c.05-.51,.05-.94,0-1.29-.05-.35,.07-.78,.35-1.29l-.07-.42c.23-.84,.56-1.65,.98-2.44-.19-.05-.22-.17-.1-.38,.12-.21,.17-.45,.17-.73,.14-.14,.23-.23,.28-.28,.05-.04,.14-.25,.28-.63-.05-.05-.07-.15-.07-.31s-.02-.2-.07-.1l.21-.28,.14,.42c.09-.14,.16-.37,.21-.7-.19-.09-.26-.3-.21-.63l.28-.7,.14,.14,.21-.56,.49-.07c0-.42,.18-.74,.56-.98,0-.37-.01-.74-.03-1.12-.02-.37,.13-.77,.45-1.19-.05-.23-.07-.53-.07-.91,.74-.19,1.44-.23,2.09-.14h-.07c.14,.09,.14,.27,0,.52-.14,.26-.21,.45-.21,.59-.09-.09-.19-.05-.28,.14,0,.28,.02,.49,.07,.63,.05-.14,.09-.25,.14-.35,.14-.37,.3-.72,.49-1.05,.09-.33,.21-.63,.35-.91l.14,.07v-.07h-.07c-.09-.09-.12-.16-.07-.21l.07-.21v-.07l.14-.28c.05-.14,.09-.3,.14-.49,0-.09,.02-.19,.07-.28l-1.68-.63c.05-.28,.15-.7,.31-1.26,.16-.56,.15-.63-.04-.21l.63-1.4-.35,1.68c.14-.23,.3-.64,.49-1.22,.19-.58,.42-1.22,.7-1.92-.05-.14-.07-.34-.07-.59s.12-.73,.35-1.43l2.09,.84,.21,.07,.21,.07c.28-.6,.54-1.21,.77-1.82,.7-1.77,1.58-3.47,2.65-5.1l.07,.07,.07-.07-.07-.07-.07,.07h0l-.14-.07,.07-.14,.07,.14,.07-.07c.46-.7,.98-1.4,1.54-2.09l.14,.14c.37-.37,.72-.7,1.05-.98,.7-.79,1.65-1.35,2.86-1.68,.98-.23,1.97-.17,2.97,.17,1,.35,1.8,.83,2.41,1.43,.37,.47,.85,1.09,1.43,1.88,.58,.79,1.06,1.47,1.43,2.02l.28,.14c.42,.93,.76,1.84,1.01,2.72,.26,.88,.55,1.82,.87,2.79l.49,1.19c0,1.02,.19,2.23,.56,3.63,.33,1.4,.6,2.96,.84,4.68-.09-.19-.13-.21-.1-.07,.02,.14,.04,.35,.04,.63,.04,.75,0,1.3-.14,1.68,.04-.05,.09,.09,.14,.42,.04,.33,.09,.63,.14,.91,.04,.28,.08,.42,.1,.42,.02,0,.08-.28,.17-.84-.05,.56-.02,1.19,.07,1.88,.19,.51,.39,.91,.63,1.19,.14,.09,.4,.21,.77,.35,.28,.23,.56,.49,.84,.77,.28,.47,.54,.91,.77,1.33l.49-.35,.14,.28s.02,.09,.07,.14l-.49,.21c.09,.09,.19,.19,.28,.28l.28-.21c.09,.19,.12,.4,.07,.63,.23,.42,.33,.86,.28,1.33-.14,.56-.3,.95-.49,1.19-.23,.28-.47,.51-.7,.7v.28l-.14-.14c-.09,.09-.21,.19-.35,.28l-.21-.14v-.07l.21-.35-.28,.28h.07l-.07,.07-.14-.14-.07,.14-.35-.35c-.14,.33-.33,.58-.56,.77v.63c-.19,.14-.3,.42-.35,.84,.09-.32,.21-.53,.35-.63l.07,1.12,.21-.49c.05,.09,.07,.19,.07,.28l.21,.42,.14,.28c.09,.23,.19,.44,.28,.63,.14,.37,.25,.77,.35,1.19,.09,.42,.07,.95-.07,1.61v.42c-.23,1.12-.72,2-1.47,2.65-.65,.75-1.54,1.35-2.65,1.82-1.16,.33-2.21,.33-3.14,0-.93-.33-1.68-.72-2.23-1.19-.05-.05-.09-.07-.14-.07-1.07-.65-1.81-1.21-2.23-1.68-.14-.28-.23-.53-.28-.77l.07-.07c-.33-.7-.58-1.3-.77-1.82-.09-.28-.19-.6-.28-.98-.09-.33-.14-.65-.14-.98l-.49-.28c-.14,0-.41-.02-.8-.07-.4-.05-.71-.05-.94,0-.79,.14-1.65,.28-2.58,.42-.23,.05-.48,.09-.73,.14-.26,.05-.41,.07-.45,.07-.42,.19-.82,.35-1.19,.49-.84,.28-1.33,.49-1.47,.63s-.21,.35-.21,.63c0,.33-.02,.61-.07,.84,.05-.09,.07-.09,.07,0v.77l.07,1.05c.05,.14,.02,.35-.07,.63l-.07,.14c-.05,.93-.16,1.65-.35,2.16-.09,.28-.3,.7-.63,1.26-.14,.23-.3,.44-.49,.63l-.28,.28c-.09,.09-.12,.12-.07,.07,.05-.05,.02-.05-.07,0l-.28,.35c-.19,.19-.42,.37-.7,.56-.47,.37-1.02,.6-1.68,.7-.56,.14-1.19,.16-1.88,.07-.65-.09-1.21-.23-1.68-.42-.33-.05-.67-.14-1.05-.28-.19-.09-.37-.17-.56-.24-.19-.07-.42-.17-.7-.31-.28-.14-.52-.33-.73-.56-.21-.23-.41-.46-.59-.7-.33-.42-.58-.84-.77-1.26,0-.05,.02-.07,.07-.07-.47-1.12-.55-2.16-.25-3.14Zm11.76-4.29c.42-.26,.81-.5,1.19-.73h-.14c-.74,.37-1.26,.77-1.54,1.19l-.14,.21v.21l-.21,1.47c.09,.75,.07,1.44-.07,2.09-.05,.23-.12,.42-.21,.56,0,.19-.02,.47-.07,.84,.14-.14,.21-.42,.21-.84,.19-.42,.23-.95,.14-1.61-.09-.65,0-1.37,.28-2.16-.05-.56,.14-.97,.56-1.22Zm11.03-12.6c-.14-.33-.28-.63-.42-.91-.19-.37-.28-.74-.28-1.12,.09-.37,.07-.74-.07-1.12h-.21c0-.19,.02-.39,.07-.63,.05-.23,0-.46-.14-.7l-.28-.28c.23-.28,.24-.56,.04-.84-.21-.28-.31-.56-.31-.84,.05,.05,.07-.01,.07-.17s.05-.31,.14-.45c-.14,.14-.24,.14-.31,0-.07-.14-.13-.05-.17,.28,0-.46-.08-.67-.24-.63-.16,.05-.17-.21-.04-.77l-.07,.07c-.09,.14-.19,.26-.28,.35-.05,0-.05-.09,0-.28,.05-.19,.07-.37,.07-.56l.21-.63c-.14,0-.17-.19-.1-.56,.07-.37,.06-.72-.04-1.05,0,.42-.06,.8-.17,1.15-.12,.35-.2,.52-.24,.52-.28,.56-.47,.79-.56,.7-.09,.05-.17,.16-.24,.35-.07,.19-.06,.56,.04,1.12-.05-.05-.09-.02-.14,.07-.09,.14-.16,.31-.21,.52-.05,.21-.09,.38-.14,.52-.09,.09-.12,.21-.07,.35-.05,.28-.07,.58-.07,.91,.09,.51-.07,1.05-.49,1.61,.05,.28,.07,.58,.07,.91-.33,.05-.65,.12-.98,.21l-.42,.07,.21,.14-.14-.07-.28-.07-.49-.07h.07c-.14-.09-.19-.21-.14-.35h.07c.14-.33,.23-.6,.28-.84,.09,.05,.19,0,.28-.14,0-.23-.05-.39-.14-.49-.09-.09-.02-.28,.21-.56,0-.05-.02-.12-.07-.21-.05-.09-.12-.07-.21,.07v-.14c-.28,.7-.56,1.4-.84,2.09-.05,.09-.07,.21-.07,.35-.05,.09-.09,.19-.14,.28,.19,.42,.23,.86,.14,1.33-.09,.19-.23,.44-.42,.77-.33,.42-.51,.81-.56,1.19-.09,.14-.08,.22,.04,.24,.12,.02,.22,.04,.31,.04,.23,.09,.44,.12,.63,.07,.42-.09,.7-.16,.84-.21,.14-.05,.3-.07,.49-.07v.21c.19-.09,.49-.2,.91-.31,.42-.12,.7-.1,.84,.04,.28-.09,.51-.14,.7-.14,.51-.19,1.06-.28,1.64-.28s1.04-.14,1.36-.42c.37,.14,.45,.23,.24,.28-.21,.05-.31,.09-.31,.14h.7c-.05-.37-.09-.72-.14-1.05Zm-7.47-21.36l.07-.07c.05-.09,.09-.19,.14-.28,.09-.09,.21-.21,.35-.35l.07-.07c-.19,.19-.35,.37-.49,.56-.09,.09-.14,.16-.14,.21Zm1.95,14.66c-.19,.47-.37,.93-.56,1.4,.09,0,.15-.1,.17-.31,.02-.21,.13-.41,.31-.59,.09-.14,.12-.3,.07-.49Zm6.49,22.34c-.14-.05-.26-.02-.35,.07l-.28,.21,.63-.28Z"/></svg>