<?xml version="1.0" encoding="UTF-8"?><svg id="Layer_1" xmlns="http://www.w3.org/2000/svg" viewBox="0 0 1000 1000"><defs><style>.cls-1{fill:#fff;}.cls-2{fill:#ef6772;}</style></defs><circle class="cls-1" cx="500" cy="500" r="500"/><g><path class="cls-2" d="M478.16,715.95v-172.56c5.68,0,11.14-.24,16.57,.04,30.7,1.55,49.03-21.63,48.82-48.76-.75-95.85-.3-191.72-.31-287.58,0-3.05,0-6.1,0-9.63h173.22c0,2.36,0,4.69,0,7.02,0,97.19-.09,194.38,.04,291.57,.09,64.46-22.92,119.18-70,163.03-37.67,35.09-82.83,54.05-134.44,56.77-11.05,.58-22.15,.09-33.9,.09Z"/><path class="cls-2" d="M521.91,283.07v174.03c-7.16,0-13.98-.04-20.8,0-25.86,.19-44.27,18.8-44.26,44.68,.01,97.88,.02,195.75,.02,293.63,0,2.2,0,4.4,0,7.12h-173.35c0-2.84,0-5.42,0-8,0-97.21,.02-194.42-.02-291.63-.05-110.08,77.18-200.49,186.02-216.8,16.99-2.55,34.42-2.07,52.39-3.03Z"/></g></svg>
